<?xml version="1.0" encoding="utf-8"?>
<!-- Generator: Adobe Illustrator 27.9.0, SVG Export Plug-In . SVG Version: 6.00 Build 0)  -->
<svg version="1.1" id="Layer_1" xmlns="http://www.w3.org/2000/svg" xmlns:xlink="http://www.w3.org/1999/xlink" x="0px" y="0px"
	 viewBox="0 0 1366 768" style="enable-background:new 0 0 1366 768;" xml:space="preserve">
<style type="text/css">
	.st0{fill:url(#SVGID_1_);}
	.st1{fill:url(#SVGID_00000090977033138232054330000010797533836287939766_);}
	.st2{fill:url(#SVGID_00000153681233891057791770000015267528482903933366_);}
	.st3{fill:url(#SVGID_00000096035886799222833470000007329494972613229708_);}
</style>
<radialGradient id="SVGID_1_" cx="1020.4525" cy="170.5974" r="223.0807" fx="1137.9855" fy="118.1797" gradientTransform="matrix(5.978339e-03 -1 1.0685 6.388157e-03 832.0632 1189.9418)" gradientUnits="userSpaceOnUse">
	<stop  offset="0" style="stop-color:#F76C06"/>
	<stop  offset="0.1682" style="stop-color:#F67107"/>
	<stop  offset="0.3599" style="stop-color:#F37E0B"/>
	<stop  offset="0.5631" style="stop-color:#EF9512"/>
	<stop  offset="0.7742" style="stop-color:#E8B51B"/>
	<stop  offset="0.9897" style="stop-color:#E0DE27"/>
	<stop  offset="1" style="stop-color:#E0E028"/>
</radialGradient>
<path class="st0" d="M1243.9,433.6c-5.5,50.9-36,128.1-101.2,143.7c-54.8,13.1-103.9-24.6-113.9-32.6c-7,2.7-67.6,25.1-121-9.5
	c-50-32.4-62.4-94.8-54.6-137.6c9.7-52.9,45.7-50.7,90.2-123.4c49.1-80.2,25.7-116.2,78.3-173.2c17.4-18.8,51.1-55.3,99.6-54.6
	c2.5,0,5,0.2,7.5,0.4c3.1-9.1,6.3-18.1,9.4-27.2c0.1-0.7,0.3-1.3,0.6-1.9c4.3-7.9,26.2-2.9,28.5-2.4c-3.9,12.5-7.7,25.1-11.6,37.6
	c31.7,11.7,58.4,37.6,70,66.9c18.5,46.5-14.8,67.1-16.1,142.7C1208.1,350.1,1251.7,361.3,1243.9,433.6z"/>
<radialGradient id="SVGID_00000156555870451739168730000000188962909387875231_" cx="184.351" cy="535.2805" r="94.0861" gradientTransform="matrix(0.1281 0.9918 -1.5633 0.2019 997.5374 244.3623)" gradientUnits="userSpaceOnUse">
	<stop  offset="1.951038e-02" style="stop-color:#576835"/>
	<stop  offset="0.2277" style="stop-color:#5C6132"/>
	<stop  offset="0.52" style="stop-color:#6A4F28"/>
	<stop  offset="0.8606" style="stop-color:#813118"/>
	<stop  offset="1" style="stop-color:#8C2311"/>
</radialGradient>
<path style="fill:url(#SVGID_00000156555870451739168730000000188962909387875231_);" d="M334.6,584.5
	c-11.2,29.9-40.7,65.4-71.1,62.4c-7.1-0.7-12.7-3.4-16.3-5.5c-6.4,2.5-16.3,5.3-28,4.4c-32-2.5-54.5-30.7-63-52.6
	c-15-38.9,0.3-94.5,37.3-105.1c17-4.9,34,1,44.6,6.3c-0.5-5.4,0-9.9,0.5-13.1c0.9-5.4,2.2-11.9,7.4-15.7c0.6-0.5,4.8-3.5,7.8-2.2
	c0.8,0.4,0.9,0.8,3.1,2.2c2.1,1.3,3.2,1.6,3.1,2.2c-0.1,0.6-1.6,0.7-3.4,1.6c-2,1-3.1,2.4-4,3.5c-2.9,3.7-3.1,7.6-3.1,9.5
	c-0.1,5.2,1.8,9.4,3.7,12.6c8.3-2.5,20.5-4.6,34.7-2.5c5.4,0.8,29.8,4.5,44.3,23C351.3,539.9,339.2,572.1,334.6,584.5z"/>
<radialGradient id="SVGID_00000137110432066092683680000015072541741421657492_" cx="806.9251" cy="619.9973" r="128.6831" fx="881.1605" fy="620.0812" gradientTransform="matrix(5.978339e-03 -1 1.6306 9.748689e-03 -208.8911 1420.8639)" gradientUnits="userSpaceOnUse">
	<stop  offset="0.1303" style="stop-color:#604219"/>
	<stop  offset="0.1751" style="stop-color:#774816"/>
	<stop  offset="0.2733" style="stop-color:#A55510"/>
	<stop  offset="0.3676" style="stop-color:#C85F0C"/>
	<stop  offset="0.4556" style="stop-color:#E26609"/>
	<stop  offset="0.5351" style="stop-color:#F26A07"/>
	<stop  offset="0.5983" style="stop-color:#F76C06"/>
	<stop  offset="0.6879" style="stop-color:#F56F0C"/>
	<stop  offset="0.8024" style="stop-color:#F0771B"/>
	<stop  offset="0.9298" style="stop-color:#E88435"/>
	<stop  offset="1" style="stop-color:#E28D47"/>
</radialGradient>
<path style="fill:url(#SVGID_00000137110432066092683680000015072541741421657492_);" d="M795.2,572.8c-34.1-21.9-76-23.5-105.9-3.7
	c-44.7,29.8-38.2,91.7-29.2,120.5c3.1,10,16.7,53.5,51.1,60.2c14.3,2.8,27-1.8,34.7-5.5c5.7,4,13.6,8.4,23.7,11
	c30,7.7,55.5-6.9,62.1-11c4.2,4.1,16.3,14.8,32.9,14.6c3.8-0.1,17.5-0.8,36.5-20.1c10-10.2,52.6-53.4,38.3-109.5
	c-6.6-26.1-28.1-65-67.5-71.2c-25.8-4.1-46.9,7.8-54.8,12.8c-0.5-11.3-1-22.5-1.5-33.8c-4.6,0.3-9.1,0.6-13.7,0.9
	C799.6,549.7,797.4,561.2,795.2,572.8z"/>
<radialGradient id="SVGID_00000133514493836453556000000014147467136301037741_" cx="35.8677" cy="102.6122" r="80.3112" gradientTransform="matrix(1.5734 0 0 1.5646 157.4375 -85.5722)" gradientUnits="userSpaceOnUse">
	<stop  offset="0" style="stop-color:#4C3C0D"/>
	<stop  offset="0.1634" style="stop-color:#6B5410"/>
	<stop  offset="0.429" style="stop-color:#987713"/>
	<stop  offset="0.6665" style="stop-color:#B89116"/>
	<stop  offset="0.865" style="stop-color:#CCA017"/>
	<stop  offset="1" style="stop-color:#D3A618"/>
</radialGradient>
<path style="fill:url(#SVGID_00000133514493836453556000000014147467136301037741_);" d="M245,210.6c17.1,23.5,25.5,35.4,36.5,47
	c17.7,18.7,22.5,19.2,38.1,36.8c17.1,19.4,27.6,31.4,32.5,49.2c7.6,27.7-7.3,37.7-3.3,66.8c4.5,33,28.4,55.1,35,61.2
	c36.4,33.6,90.2,36.9,129,25c71.5-21.9,118-103.7,102.7-169.8c-1.1-4.8-13.2-53.9-53.9-74.5c-25.4-12.9-36.3-1.8-77.6-11
	c-13-2.9-57.6-13.3-93.3-46.7c-39.6-37-27.9-67.9-62.3-82.3c-23.3-9.7-40.8-1-60.5-18.7c-11.2-10.2-16.4-22.9-27.9-22.9
	c-6.8,0-14.4,4.4-17.3,10.9c-5.3,12,10.5,20.4,12.6,40.7c2.4,22.8-16,28.5-13.5,50.6C222.1,176.4,223.1,180.6,245,210.6z"/>
</svg>
