<?xml version="1.0" encoding="utf-8"?>
<!-- Generator: Adobe Illustrator 27.9.0, SVG Export Plug-In . SVG Version: 6.00 Build 0)  -->
<svg version="1.1" id="Layer_1" xmlns="http://www.w3.org/2000/svg" xmlns:xlink="http://www.w3.org/1999/xlink" x="0px" y="0px"
	 viewBox="0 0 1125 2436" style="enable-background:new 0 0 1125 2436;" xml:space="preserve">
<style type="text/css">
	.st0{fill:url(#SVGID_1_);}
	.st1{fill:url(#SVGID_00000134212504443686609380000011035340494958854283_);}
	.st2{fill:url(#SVGID_00000088821177240569990540000016562370893667164576_);}
</style>
<radialGradient id="SVGID_1_" cx="517.9803" cy="957.2189" r="360.2553" fx="707.7857" fy="872.569" gradientTransform="matrix(5.978339e-03 -1 1.0685 6.388157e-03 -507.9348 1469.0751)" gradientUnits="userSpaceOnUse">
	<stop  offset="0" style="stop-color:#F76C06"/>
	<stop  offset="0.1682" style="stop-color:#F67107"/>
	<stop  offset="0.3599" style="stop-color:#F37E0B"/>
	<stop  offset="0.5631" style="stop-color:#EF9512"/>
	<stop  offset="0.7742" style="stop-color:#E8B51B"/>
	<stop  offset="0.9897" style="stop-color:#E0DE27"/>
	<stop  offset="1" style="stop-color:#E0E028"/>
</radialGradient>
<path class="st0" d="M878.9,1381.9c-8.8,82.1-58.1,206.9-163.4,232.1c-88.6,21.2-167.8-39.8-183.9-52.6
	c-11.2,4.4-109.2,40.6-195.4-15.3c-80.7-52.4-100.7-153.1-88.1-222.2c15.6-85.4,73.8-81.8,145.6-199.2
	C472.9,995.2,435.2,937,520.1,845c28-30.4,82.5-89.3,160.9-88.1c4,0.1,8,0.3,12,0.7c5.1-14.6,10.1-29.3,15.2-43.9
	c0.2-1.1,0.6-2.1,1-3c7-12.8,42.3-4.7,46-3.8c-6.2,20.2-12.5,40.5-18.7,60.8c51.1,18.9,94.2,60.8,113,108.1
	c29.8,75.1-23.9,108.3-26,230.4C821,1247.1,891.4,1265.2,878.9,1381.9z"/>
<radialGradient id="SVGID_00000123412912550331959010000017202296702418695568_" cx="334.3937" cy="1959.3998" r="345.0732" gradientTransform="matrix(0.1281 0.9918 -1.5633 0.2019 3354.6797 1232.111)" gradientUnits="userSpaceOnUse">
	<stop  offset="1.951038e-02" style="stop-color:#576835"/>
	<stop  offset="0.2277" style="stop-color:#5C6132"/>
	<stop  offset="0.52" style="stop-color:#6A4F28"/>
	<stop  offset="0.8606" style="stop-color:#813118"/>
	<stop  offset="1" style="stop-color:#8C2311"/>
</radialGradient>
<path style="fill:url(#SVGID_00000123412912550331959010000017202296702418695568_);" d="M885.4,2139.9
	c-41.2,109.7-149.4,240-260.9,229c-26.1-2.6-46.7-12.3-59.9-20.1c-23.5,9.1-59.6,19.4-102.7,16.1c-117.2-9.1-200-112.7-231-192.8
	c-55.2-142.8,1.3-346.7,136.9-385.6c62.3-17.9,124.6,3.8,163.5,22.9c-1.7-19.9-0.1-36.3,1.9-48c3.3-19.7,7.9-43.6,27-57.6
	c2.3-1.7,17.7-12.9,28.5-8c3.1,1.4,3.5,3,11.4,8c7.7,4.9,11.6,6,11.4,8c-0.2,2.4-5.8,2.5-12.5,5.9c-7.2,3.6-11.4,8.8-14.6,12.8
	c-10.6,13.5-11.2,27.9-11.4,34.8c-0.5,19.2,6.6,34.4,13.6,46.3c30.5-9,75.2-16.9,127.4-9.1c19.9,3,109.4,16.3,162.5,84.4
	C946.7,1976.3,902.4,2094.5,885.4,2139.9z"/>
<radialGradient id="SVGID_00000108281029051699658240000009079560655832326058_" cx="585.1702" cy="277.7274" r="323.959" fx="772.0574" fy="277.9387" gradientTransform="matrix(5.978339e-03 -1 1.6306 9.748689e-03 128.7985 860.1797)" gradientUnits="userSpaceOnUse">
	<stop  offset="0.1303" style="stop-color:#604219"/>
	<stop  offset="0.1751" style="stop-color:#774816"/>
	<stop  offset="0.2733" style="stop-color:#A55510"/>
	<stop  offset="0.3676" style="stop-color:#C85F0C"/>
	<stop  offset="0.4556" style="stop-color:#E26609"/>
	<stop  offset="0.5351" style="stop-color:#F26A07"/>
	<stop  offset="0.5983" style="stop-color:#F76C06"/>
	<stop  offset="0.6879" style="stop-color:#F56F0C"/>
	<stop  offset="0.8024" style="stop-color:#F0771B"/>
	<stop  offset="0.9298" style="stop-color:#E88435"/>
	<stop  offset="1" style="stop-color:#E28D47"/>
</radialGradient>
<path style="fill:url(#SVGID_00000108281029051699658240000009079560655832326058_);" d="M555.5,158.8
	c-85.8-55.1-191.4-59.3-266.5-9.2c-112.4,74.9-96.1,230.9-73.5,303.3c7.9,25.2,42,134.7,128.7,151.6c35.9,7,67.9-4.4,87.3-13.8
	c14.4,10,34.4,21.1,59.7,27.6c75.6,19.3,139.8-17.5,156.2-27.6c10.6,10.3,41.1,37.3,82.7,36.8c9.6-0.1,44.2-2,91.9-50.5
	c25.3-25.7,132.4-134.5,96.5-275.7c-16.7-65.7-70.8-163.6-170-179.2c-64.9-10.2-118,19.6-137.8,32.2c-1.3-28.3-2.5-56.6-3.8-85
	c-11.5,0.8-23,1.5-34.5,2.3C566.7,100.7,561.1,129.7,555.5,158.8z"/>
</svg>
