<?xml version="1.0" encoding="UTF-8"?>
<svg id="Layer_2" data-name="Layer 2" xmlns="http://www.w3.org/2000/svg" xmlns:xlink="http://www.w3.org/1999/xlink" viewBox="0 0 98.93 104.08">
  <defs>
    <style>
      .cls-1 {
        fill: url(#radial-gradient);
        stroke-width: 0px;
      }
    </style>
    <radialGradient id="radial-gradient" cx="35.29" cy="84.91" fx="35.29" fy="84.91" r="46.16" gradientTransform="translate(-85.02 42.75) rotate(-54.62) scale(1 1.44)" gradientUnits="userSpaceOnUse">
      <stop offset=".02" stop-color="#6b366b"/>
      <stop offset=".12" stop-color="#7c4d77"/>
      <stop offset=".43" stop-color="#ad8d99"/>
      <stop offset=".69" stop-color="#d0bdb2"/>
      <stop offset=".89" stop-color="#e6dac1"/>
      <stop offset="1" stop-color="#efe5c7"/>
    </radialGradient>
  </defs>
  <g id="Layer_1-2" data-name="Layer 1">
    <path class="cls-1" d="m81.92,101.98c-6.97.84-12.51-4.52-13.62-5.64-2.69,4.79-7.62,7.8-12.83,7.74-6.52-.08-12.46-4.95-14.07-11.89-5.29,4.18-12.66,4.65-18.43,1.18-5.77-3.46-8.81-10.17-7.62-16.8-1.71.04-6.53-.08-10.36-3.47C-.08,68.61-1.35,60.18,2.38,52.54,1.33,51.21.12,49.2,0,46.7c-.24-5.54,5.12-9.73,10.38-13.71,4.64-3.51,10.15-7.55,18.93-10.06,10.53-3.01,14.93-.92,29.18-1.79,7.25-.45,11.23.63,15.58-2.05,2.95-1.82,4.01-3.82,8.78-9.15,3.76-4.2,7.05-7.38,9.21-9.38.22-.12,2.1-1.09,4.18-.15,2.15.97,2.63,3.14,2.68,3.36-4.58,2.63-10.84,7.24-13.72,14.77-1.67,4.36-2.46,10.38,4.94,35.37,4.9,16.54,7.65,22.12,7.35,27.63-.07,1.24-.32,2.51-.69,3.92-.2.75-4.27,15.24-14.89,16.52Z"/>
  </g>
</svg>