<?xml version="1.0" encoding="utf-8"?>
<!-- Generator: Adobe Illustrator 27.9.0, SVG Export Plug-In . SVG Version: 6.00 Build 0)  -->
<svg version="1.1" id="Layer_1" xmlns="http://www.w3.org/2000/svg" xmlns:xlink="http://www.w3.org/1999/xlink" x="0px" y="0px"
	 viewBox="0 0 1125 2436" style="enable-background:new 0 0 1125 2436;" xml:space="preserve">
<style type="text/css">
	.st0{fill:url(#SVGID_1_);}
	.st1{fill:url(#SVGID_00000011738767425710259630000015671453386156752544_);}
	.st2{fill:url(#SVGID_00000063601954320492219040000017335291238795300527_);}
</style>
<radialGradient id="SVGID_1_" cx="1276.9293" cy="657.4444" r="1089.1566" gradientTransform="matrix(0.3506 0.4122 -0.9036 0.7902 602.0551 -802.3865)" gradientUnits="userSpaceOnUse">
	<stop  offset="0" style="stop-color:#0C8E1B"/>
	<stop  offset="2.482200e-02" style="stop-color:#139120"/>
	<stop  offset="0.2923" style="stop-color:#59AE58"/>
	<stop  offset="0.5331" style="stop-color:#91C684"/>
	<stop  offset="0.7387" style="stop-color:#B9D7A3"/>
	<stop  offset="0.901" style="stop-color:#D2E1B7"/>
	<stop  offset="1" style="stop-color:#DBE5BE"/>
</radialGradient>
<path class="st0" d="M790.1,700.1C733.9,600,667,565.4,583.2,495.3C499.8,425.6,382,306,231.1,87.2c8.3-16.8,16.5-33.7,24.8-50.5
	c38.6,49.2,89.9,112.1,153,182.8c166,186,249.1,279,360.7,365.4c98.1,75.9,177.4,119.3,169.1,175c-4.5,29.8-33.4,58.8-59.3,58.4
	C841.8,817.6,820.9,754.9,790.1,700.1z"/>
<radialGradient id="SVGID_00000005224719522369148850000000802601663167527102_" cx="561.9782" cy="1532.4004" r="849.5993" gradientTransform="matrix(0.9981 -6.106988e-02 6.106988e-02 0.9981 -86.2227 38.2839)" gradientUnits="userSpaceOnUse">
	<stop  offset="0" style="stop-color:#FFFFFF"/>
	<stop  offset="5.046628e-02" style="stop-color:#FEFAFB"/>
	<stop  offset="0.114" style="stop-color:#FCEAF0"/>
	<stop  offset="0.1844" style="stop-color:#F9D0DD"/>
	<stop  offset="0.26" style="stop-color:#F5ACC3"/>
	<stop  offset="0.3395" style="stop-color:#EF7EA1"/>
	<stop  offset="0.4226" style="stop-color:#E84678"/>
	<stop  offset="0.5063" style="stop-color:#E00549"/>
	<stop  offset="0.5933" style="stop-color:#E0084B"/>
	<stop  offset="0.6586" style="stop-color:#E21252"/>
	<stop  offset="0.7168" style="stop-color:#E4225E"/>
	<stop  offset="0.771" style="stop-color:#E6396F"/>
	<stop  offset="0.8223" style="stop-color:#EA5684"/>
	<stop  offset="0.8715" style="stop-color:#EF7A9E"/>
	<stop  offset="0.9189" style="stop-color:#F4A5BE"/>
	<stop  offset="0.9639" style="stop-color:#FAD6E1"/>
	<stop  offset="0.9972" style="stop-color:#FFFFFF"/>
</radialGradient>
<path style="fill:url(#SVGID_00000005224719522369148850000000802601663167527102_);" d="M571.2,827.9c-118,2.7-249.6,5.7-305.4,103
	c-49.8,86.9-20.9,217.2,46.2,275.8c39.2,34.2,66.9,22.7,133,76.2c26,21,64.4,52.8,90.9,108.1c27.4,56.9,28.3,109.9,26.8,137.7
	c-2.5-31.8-2.1-83.9,20.7-140.6c20.9-51.9,51.4-84.6,91.3-126.6c84.1-88.6,108.3-77,139-125.8c42.8-68.2,52.3-180.9-4.2-249.1
	C757.3,823.7,671,825.6,571.2,827.9z"/>
<radialGradient id="SVGID_00000138554998372182459470000010235902623062314634_" cx="821.3685" cy="1530.6963" r="686.3253" fx="613.1461" fy="1852.7231" gradientTransform="matrix(0.9502 -0.3117 0.3117 0.9502 -613.5381 272.2443)" gradientUnits="userSpaceOnUse">
	<stop  offset="0" style="stop-color:#195E2E"/>
	<stop  offset="0.1626" style="stop-color:#1C6230"/>
	<stop  offset="0.2801" style="stop-color:#216A35"/>
	<stop  offset="0.382" style="stop-color:#267139"/>
	<stop  offset="0.5317" style="stop-color:#348544"/>
	<stop  offset="0.711" style="stop-color:#4CA556"/>
	<stop  offset="0.9116" style="stop-color:#6CD270"/>
	<stop  offset="1" style="stop-color:#7CE87C"/>
</radialGradient>
<path style="fill:url(#SVGID_00000138554998372182459470000010235902623062314634_);" d="M794.5,1717.1
	c-4.3-51-37.7-93.7-83.2-107.1c-52.5-15.5-96.3,15-101.8,19c-1.1-1.8-24.8-38.9-67.6-37.8c-4.2,0.1-39,1.5-59.3,31.5
	c-15.9,23.5-12.1,48.5-11.1,54c-12.9-35.7-50.8-51.2-77.7-39.3c-20,8.8-33.1,32.4-31.3,58.3c-42.9-14.4-86,0.8-102.6,31.3
	c-15.9,29.3-1.6,62.2-0.3,64.9c14,30.7,42.7,40.5,47.4,42.1c-4.6,2.9-32.9,21.3-35.6,52.5c-3.1,36.7,31.6,64.8,58.1,74.6
	c14.4,5.3,27.4,5.6,35.3,5.2c-1.3,26.8,18.8,49.7,43.9,52.1c27,2.6,52.3-19.2,53.5-48c2.8,5.8,12.9,24.6,35.2,34.1
	c0.7,0.3,3.8,1.6,8.5,2.8c32,41.2,67.5,95.6,96.5,163.7c31.1,72.8,45.5,138.9,52.5,189.3c9.5,1.5,23.8,2.5,40.4-1.3
	c31.7-7.3,50.9-27.6,57.9-35.8c-25.3-45.3-56.6-116-65.4-206.6c-3.5-35.6-2.8-67.9-0.3-95.9c13.1-39.8,26.3-79.6,39.4-119.3
	c34.5,3.6,68-8.3,88.4-32.4C849.6,1828.5,844.2,1758.5,794.5,1717.1z M572.2,2027.2c-6.8-6.8-13.7-14.3-20.7-22.7
	c3.8-1.8,7.4-4.1,10.9-7.1c2.1-1.8,4-3.7,5.7-5.7C569.4,2003.5,570.8,2015.4,572.2,2027.2z M621.9,2025.2c-2.7-21-5.3-41.9-7.9-62.8
	c9.8,0.6,19.6-0.5,28.8-3.2L621.9,2025.2z"/>
</svg>
