<?xml version="1.0" encoding="utf-8"?>
<!-- Generator: Adobe Illustrator 27.9.0, SVG Export Plug-In . SVG Version: 6.00 Build 0)  -->
<svg version="1.1" id="Layer_1" xmlns="http://www.w3.org/2000/svg" xmlns:xlink="http://www.w3.org/1999/xlink" x="0px" y="0px"
	 viewBox="0 0 1125 2436" style="enable-background:new 0 0 1125 2436;" xml:space="preserve">
<style type="text/css">
	.st0{fill:url(#SVGID_1_);}
	.st1{fill:url(#SVGID_00000134971564146383214420000011480045283227110528_);}
	.st2{fill:url(#SVGID_00000071519930422539019800000015345297801940083840_);}
	.st3{fill:url(#SVGID_00000003783811442753670340000018199202879501391551_);}
	.st4{fill:url(#SVGID_00000087410161542042194720000006402171209446587550_);}
	.st5{fill:url(#SVGID_00000181807204691598282590000003277100050981883297_);}
	.st6{fill:url(#SVGID_00000078731945171496580100000002839891771301429171_);}
	.st7{fill:url(#SVGID_00000180355818913921968430000011563498680015856826_);}
	.st8{fill:url(#SVGID_00000119809016728014116030000017822494848523718554_);}
	.st9{fill:url(#SVGID_00000115483169281392761800000000595065080361032578_);}
	.st10{fill:url(#SVGID_00000093898192142289077370000004182183576700243896_);}
	.st11{fill:url(#SVGID_00000145023226439177033220000009895282405786621830_);}
	.st12{fill:url(#SVGID_00000139997632261155929580000002465442672502290569_);}
	.st13{fill:url(#SVGID_00000073679192832886297800000014260734361897364414_);}
	.st14{fill:url(#SVGID_00000166645088190705469760000013376682869800752793_);}
	.st15{fill:url(#SVGID_00000131361300413196119860000012546827533821855670_);}
	.st16{fill:url(#SVGID_00000138559356832439286000000001694044334266328511_);}
	.st17{fill:url(#SVGID_00000144295625368562089570000011422024746353301183_);}
	.st18{fill:url(#SVGID_00000177467613881601431050000008247808935066194609_);}
	.st19{fill:url(#SVGID_00000103980538123765748870000009378972809534091936_);}
	.st20{fill:url(#SVGID_00000080903546852888077680000005095522514256658363_);}
	.st21{fill:url(#SVGID_00000031896937522029940000000009741074812322767802_);}
	.st22{fill:url(#SVGID_00000098900560109242721820000015534270746586179509_);}
	.st23{fill:url(#SVGID_00000027598683054981157530000004274242251349212094_);}
	.st24{fill:url(#SVGID_00000083078486868929548460000001668258395627379355_);}
	.st25{fill:url(#SVGID_00000166661078207492110740000007849690188024679844_);}
	.st26{fill:url(#SVGID_00000150065198494094844780000007139934239099393410_);}
	.st27{fill:url(#SVGID_00000112631725583933327440000011603756856761622425_);}
	.st28{fill:url(#SVGID_00000084499517183633075340000013545770108816461464_);}
	.st29{fill:url(#SVGID_00000065041665932863698000000001950784801215398826_);}
	.st30{fill:url(#SVGID_00000170984276239628444100000000249506045078071943_);}
	.st31{fill:url(#SVGID_00000116192919153087312680000012978969544367559328_);}
	.st32{fill:url(#SVGID_00000131343257623299829200000013285300115713120919_);}
	.st33{fill:url(#SVGID_00000000939429160190545210000003035539518880573095_);}
	.st34{fill:url(#SVGID_00000044166332009149619710000005705129765297733815_);}
	.st35{fill:url(#SVGID_00000135679983286010866100000012343787526714467993_);}
</style>
<g>
	<radialGradient id="SVGID_1_" cx="353.3127" cy="332.8187" r="188.8321" gradientUnits="userSpaceOnUse">
		<stop  offset="0" style="stop-color:#E4155D"/>
		<stop  offset="0.3551" style="stop-color:#E1155E"/>
		<stop  offset="0.6186" style="stop-color:#D81562"/>
		<stop  offset="0.852" style="stop-color:#C81669"/>
		<stop  offset="1" style="stop-color:#B9166F"/>
	</radialGradient>
	<path class="st0" d="M420.5,305.1c-0.3,3.3-0.9,6.5-1.6,9.7c-2.5,10.3-7.3,19.7-13.8,27.4c-6.6,7.9-14.9,14.2-24.4,18
		c-10.9-4.4-20.4-12-27.5-21.8c-0.8-1.1-1.6-2.3-2.3-3.5c-6.6-10.5-10.4-23.3-10.4-36.9c0-8.2,1.4-16.1,3.9-23.3
		c11.6,19.8,33.2,33,57.8,33C408.6,307.7,414.7,306.8,420.5,305.1z"/>
	
		<radialGradient id="SVGID_00000078762446004593949650000001727731609084079007_" cx="211.2117" cy="318.6525" r="165.3942" gradientUnits="userSpaceOnUse">
		<stop  offset="0" style="stop-color:#E4155D"/>
		<stop  offset="0.3551" style="stop-color:#E1155E"/>
		<stop  offset="0.6186" style="stop-color:#D81562"/>
		<stop  offset="0.852" style="stop-color:#C81669"/>
		<stop  offset="1" style="stop-color:#B9166F"/>
	</radialGradient>
	<path style="fill:url(#SVGID_00000078762446004593949650000001727731609084079007_);" d="M263,298c0,0.5,0,1-0.1,1.5
		c-0.3,14.1-4.6,27.2-11.9,37.8c-5,7.4-11.5,13.6-18.9,18.3c-8.8-5.4-16.1-13.1-21.5-22.3c-0.4-0.6-0.7-1.2-1.1-1.9
		c-5.3-9.8-8.3-21.1-8.3-33.3c0-24.6,12.4-46.1,30.9-57.5C250.6,251.9,263,273.4,263,298z"/>
	
		<radialGradient id="SVGID_00000148636241265163106250000013264357649935836078_" cx="214.928" cy="504.2451" r="213.8389" gradientUnits="userSpaceOnUse">
		<stop  offset="0" style="stop-color:#E4155D"/>
		<stop  offset="0.3551" style="stop-color:#E1155E"/>
		<stop  offset="0.6186" style="stop-color:#D81562"/>
		<stop  offset="0.852" style="stop-color:#C81669"/>
		<stop  offset="1" style="stop-color:#B9166F"/>
	</radialGradient>
	<path style="fill:url(#SVGID_00000148636241265163106250000013264357649935836078_);" d="M286.3,540.1c-7.2,3.2-15,4.9-23.2,4.9
		c-34.1,0-61.7-29.7-61.7-66.4c0-6.5,0.9-12.9,2.5-18.8c5.2-19,18.1-34.5,34.8-42.2c3.3,11.2,9.2,21.1,17,28.8
		c1.9,1.9,3.8,3.6,5.9,5.2c-3.3,2.6-6.9,4.8-10.7,6.6c-1.9,6.4-3,13.3-3,20.4C247.8,506.5,263.7,530.3,286.3,540.1z"/>
	
		<radialGradient id="SVGID_00000039093189674377439930000008848168865781080457_" cx="284.5508" cy="417.5332" r="4.7187" gradientUnits="userSpaceOnUse">
		<stop  offset="0" style="stop-color:#E4155D"/>
		<stop  offset="0.3551" style="stop-color:#E1155E"/>
		<stop  offset="0.6186" style="stop-color:#D81562"/>
		<stop  offset="0.852" style="stop-color:#C81669"/>
		<stop  offset="1" style="stop-color:#B9166F"/>
	</radialGradient>
	<path style="fill:url(#SVGID_00000039093189674377439930000008848168865781080457_);" d="M286.3,417.1c-0.7,0.3-1.4,0.6-2.1,0.9
		c0.2-0.5,0.3-1,0.5-1.6C285.2,416.6,285.8,416.9,286.3,417.1z"/>
	
		<radialGradient id="SVGID_00000119091929298472942140000008239309625861947289_" cx="343.2279" cy="421.533" r="195.4273" gradientUnits="userSpaceOnUse">
		<stop  offset="0" style="stop-color:#E4155D"/>
		<stop  offset="0.3551" style="stop-color:#E1155E"/>
		<stop  offset="0.6186" style="stop-color:#D81562"/>
		<stop  offset="0.852" style="stop-color:#C81669"/>
		<stop  offset="1" style="stop-color:#B9166F"/>
	</radialGradient>
	<path style="fill:url(#SVGID_00000119091929298472942140000008239309625861947289_);" d="M405.2,342.2c-6.6,7.9-14.9,14.2-24.4,18
		c-6.7,2.7-13.9,4.2-21.5,4.2c-3,0-5.9-0.2-8.7-0.7c5.6,9.9,8.7,21.6,8.7,34c0,8.4-1.5,16.3-4,23.7c-0.1,0.1-0.1,0.2-0.1,0.3
		c-1,2.9-2.3,5.7-3.6,8.3c9,9,15.5,20.8,18.2,34c-13.2-0.3-25.4-5.1-35.3-13.1c-1-0.8-2-1.7-3-2.5c4-8.5,9.7-15.8,16.6-21.7
		c2.2-1.9,4.5-3.6,7-5.2c-9-11.5-14.4-26.4-14.4-42.7c0-5.9,0.7-11.6,2-17c0.6-2.4,1.3-4.8,2.1-7.1c-3.1-3.9-6.5-7.4-10.3-10.4
		c5-4,10.5-7.2,16.6-9.4c2.2-0.8,4.4-1.6,6.7-2.1c4.3-1,8.9-1.6,13.5-1.6C383.7,331.2,395.4,335.3,405.2,342.2z"/>
	
		<radialGradient id="SVGID_00000067939039189803833870000016526130642292485779_" cx="213.0636" cy="449.1871" r="131.9342" gradientUnits="userSpaceOnUse">
		<stop  offset="0" style="stop-color:#E4155D"/>
		<stop  offset="0.3551" style="stop-color:#E1155E"/>
		<stop  offset="0.6186" style="stop-color:#D81562"/>
		<stop  offset="0.852" style="stop-color:#C81669"/>
		<stop  offset="1" style="stop-color:#B9166F"/>
	</radialGradient>
	<path style="fill:url(#SVGID_00000067939039189803833870000016526130642292485779_);" d="M255.6,446.4c1.9,1.9,3.8,3.6,5.9,5.2
		c-3.3,2.6-6.9,4.8-10.7,6.6c-7.7,3.8-16.2,5.9-25.3,5.9c-7.6,0-14.9-1.5-21.7-4.3c5.2-19,18.1-34.5,34.8-42.2
		C242,428.7,247.9,438.6,255.6,446.4z"/>
	
		<radialGradient id="SVGID_00000167390009577660433710000013216873014448315818_" cx="221.4582" cy="353.7341" r="149.1178" gradientUnits="userSpaceOnUse">
		<stop  offset="0" style="stop-color:#E4155D"/>
		<stop  offset="0.3551" style="stop-color:#E1155E"/>
		<stop  offset="0.6186" style="stop-color:#D81562"/>
		<stop  offset="0.852" style="stop-color:#C81669"/>
		<stop  offset="1" style="stop-color:#B9166F"/>
	</radialGradient>
	<path style="fill:url(#SVGID_00000167390009577660433710000013216873014448315818_);" d="M277.8,362.4c-4.7,1.2-9.7,1.9-14.7,1.9
		c-6,0-11.8-0.9-17.3-2.6c-4.8-1.5-9.3-3.6-13.5-6.2c-8.8-5.4-16.1-13.1-21.5-22.3c4.7-1.2,9.7-1.9,14.8-1.9c9.1,0,17.8,2.1,25.6,6
		c3.7,1.8,7.2,4,10.4,6.5C268,348.8,273.5,355.1,277.8,362.4z"/>
	
		<radialGradient id="SVGID_00000096763603642749229390000013474307450204518591_" cx="252.5177" cy="454.4109" r="25.4613" gradientUnits="userSpaceOnUse">
		<stop  offset="0" style="stop-color:#E4155D"/>
		<stop  offset="0.3551" style="stop-color:#E1155E"/>
		<stop  offset="0.6186" style="stop-color:#D81562"/>
		<stop  offset="0.852" style="stop-color:#C81669"/>
		<stop  offset="1" style="stop-color:#B9166F"/>
	</radialGradient>
	<path style="fill:url(#SVGID_00000096763603642749229390000013474307450204518591_);" d="M255.6,446.4c1.9,1.9,3.8,3.6,5.9,5.2
		c-3.3,2.6-6.9,4.8-10.7,6.6C252,454,253.7,450.1,255.6,446.4z"/>
	
		<radialGradient id="SVGID_00000018937676055009150700000008351859189191921326_" cx="335.2868" cy="452.0731" r="94.7299" gradientUnits="userSpaceOnUse">
		<stop  offset="0" style="stop-color:#E4155D"/>
		<stop  offset="0.3551" style="stop-color:#E1155E"/>
		<stop  offset="0.6186" style="stop-color:#D81562"/>
		<stop  offset="0.852" style="stop-color:#C81669"/>
		<stop  offset="1" style="stop-color:#B9166F"/>
	</radialGradient>
	<path style="fill:url(#SVGID_00000018937676055009150700000008351859189191921326_);" d="M369.7,464c-13.2-0.3-25.4-5.1-35.3-13.1
		c-1.8,1.5-3.7,2.8-5.7,4c0.8-2.2,1.7-4.4,2.7-6.5c4-8.5,9.7-15.8,16.6-21.7c1.2,1,2.4,2.1,3.5,3.3
		C360.4,438.9,366.9,450.7,369.7,464z"/>
	
		<radialGradient id="SVGID_00000157288352424828300760000016172212977331490984_" cx="335.2868" cy="450.3635" r="96.2796" gradientUnits="userSpaceOnUse">
		<stop  offset="0" style="stop-color:#E4155D"/>
		<stop  offset="0.3551" style="stop-color:#E1155E"/>
		<stop  offset="0.6186" style="stop-color:#D81562"/>
		<stop  offset="0.852" style="stop-color:#C81669"/>
		<stop  offset="1" style="stop-color:#B9166F"/>
	</radialGradient>
	<path style="fill:url(#SVGID_00000157288352424828300760000016172212977331490984_);" d="M351.5,430c9,9,15.5,20.8,18.2,34
		c-13.2-0.3-25.4-5.1-35.3-13.1c-1.8,1.5-3.7,2.8-5.7,4c0.8-2.2,1.7-4.4,2.7-6.5c4-8.5,9.7-15.8,16.6-21.7c2.2-1.9,4.5-3.6,7-5.2
		c0.1-0.1,0.2-0.1,0.3-0.2c-0.1,0.1-0.1,0.2-0.1,0.3C354.1,424.5,352.8,427.3,351.5,430z"/>
	
		<radialGradient id="SVGID_00000083091212173807720520000011629936253890477713_" cx="418.5384" cy="438.5679" r="41.4911" gradientUnits="userSpaceOnUse">
		<stop  offset="0" style="stop-color:#E4155D"/>
		<stop  offset="0.3551" style="stop-color:#E1155E"/>
		<stop  offset="0.6186" style="stop-color:#D81562"/>
		<stop  offset="0.852" style="stop-color:#C81669"/>
		<stop  offset="1" style="stop-color:#B9166F"/>
	</radialGradient>
	<path style="fill:url(#SVGID_00000083091212173807720520000011629936253890477713_);" d="M433.7,435.9c-5.5,3.5-11.6,6.2-18,7.7
		c4.2-4.7,7.7-10,10.5-15.8C428.8,430.3,431.4,433,433.7,435.9z"/>
	
		<radialGradient id="SVGID_00000057845510677816177720000012574518584517579177_" cx="211.2117" cy="302.1705" r="154.5974" gradientUnits="userSpaceOnUse">
		<stop  offset="0" style="stop-color:#E4155D"/>
		<stop  offset="0.3551" style="stop-color:#E1155E"/>
		<stop  offset="0.6186" style="stop-color:#D81562"/>
		<stop  offset="0.852" style="stop-color:#C81669"/>
		<stop  offset="1" style="stop-color:#B9166F"/>
	</radialGradient>
	<path style="fill:url(#SVGID_00000057845510677816177720000012574518584517579177_);" d="M263,298c0,0.5,0,1-0.1,1.5
		c-10.8,19.1-30.4,31.8-52.7,31.8h-0.7c-5.3-9.8-8.3-21.1-8.3-33.3c0-24.6,12.4-46.1,30.9-57.5C250.6,251.9,263,273.4,263,298z"/>
	
		<radialGradient id="SVGID_00000126313597107441136920000000615842514648352433_" cx="304.3788" cy="359.9386" r="175.1713" gradientUnits="userSpaceOnUse">
		<stop  offset="0" style="stop-color:#E4155D"/>
		<stop  offset="0.3551" style="stop-color:#E1155E"/>
		<stop  offset="0.6186" style="stop-color:#D81562"/>
		<stop  offset="0.852" style="stop-color:#C81669"/>
		<stop  offset="1" style="stop-color:#B9166F"/>
	</radialGradient>
	<path style="fill:url(#SVGID_00000126313597107441136920000000615842514648352433_);" d="M469.1,241.2c0-36.6-29.9-66.4-66.8-66.4
		c-35.4,0-64.3,27.3-66.7,61.8c-9.6,4.3-18,11.2-24.4,19.8c-11.2-15-28.3-24.6-47.4-24.9c-10.7-19.8-30.6-33.1-53.4-33.1
		c-33.6,0-60.9,28.9-61.6,64.9c-5.7,10.1-9,21.9-9,34.6c0,26.8,14.8,49.9,36.1,60.4c-7.5,11-11.9,24.6-11.9,39.3
		c0,28.5,16.6,52.8,40,62.2c5.2-19,18.1-34.5,34.8-42.2c3.3,11.2,9.2,21.1,17,28.8c1.9,1.9,3.8,3.6,5.9,5.2
		c-3.3,2.6-6.9,4.8-10.7,6.6c-1.9,6.4-3,13.3-3,20.4c0,27.8,15.9,51.6,38.5,61.4c7.2,3.2,15,4.9,23.2,4.9c14.6,0,28-5.4,38.5-14.5
		c10.5,9.1,23.9,14.5,38.4,14.5c34.1,0,61.7-29.7,61.7-66.4c0-16.3-5.4-31.2-14.4-42.7c-5.5,3.5-11.6,6.2-18,7.7
		c4.2-4.7,7.7-10,10.5-15.8c4.3-9.1,6.7-19.4,6.7-30.2c0-13.7-3.8-26.4-10.5-37c11.5-4.3,21.4-12.1,28.7-22.3
		c8-11.2,12.8-25.2,12.8-40.4c0-8.2-1.4-16.1-3.9-23.3C465.7,264.8,469.1,253.4,469.1,241.2z M284.7,416.5c0.5,0.2,1.1,0.4,1.6,0.6
		c-0.7,0.3-1.4,0.6-2.1,0.9C284.4,417.5,284.5,417,284.7,416.5z M210.7,333.1c-0.4-0.6-0.7-1.2-1.1-1.9c-5.3-9.8-8.3-21.1-8.3-33.3
		c0-24.6,12.4-46.1,30.9-57.5c18.4,11.5,30.8,33,30.8,57.5c0,0.5,0,1-0.1,1.5c-0.3,14.1-4.6,27.2-11.9,37.8c3.7,1.8,7.2,4,10.4,6.5
		c6.5,5,12,11.4,16.2,18.7c-4.7,1.2-9.7,1.9-14.7,1.9c-6,0-11.8-0.9-17.3-2.6c-4.8-1.5-9.3-3.6-13.5-6.2
		C223.5,350,216.1,342.3,210.7,333.1z M334.4,450.9c-1.8,1.5-3.7,2.8-5.7,4c0.8-2.2,1.7-4.4,2.7-6.5c4-8.5,9.7-15.8,16.6-21.7
		c2.2-1.9,4.5-3.6,7-5.2c-9-11.5-14.4-26.4-14.4-42.7c0-5.9,0.7-11.6,2-17c0.6-2.4,1.3-4.8,2.1-7.1c-3.1-3.9-6.5-7.4-10.3-10.4
		c5-4,10.5-7.2,16.6-9.4c-6.6-10.5-10.4-23.3-10.4-36.9c0-8.2,1.4-16.1,3.9-23.3c11.6,19.8,33.2,33,57.8,33c6.4,0,12.5-0.9,18.3-2.5
		c-0.3,3.3-0.9,6.5-1.6,9.7c-2.5,10.3-7.3,19.7-13.8,27.4c-6.6,7.9-14.9,14.2-24.4,18c-6.7,2.7-13.9,4.2-21.5,4.2
		c-3,0-5.9-0.2-8.7-0.7c5.6,9.9,8.7,21.6,8.7,34c0,8.4-1.5,16.3-4,23.7c-0.1,0.1-0.1,0.2-0.1,0.3c-1,2.9-2.3,5.7-3.6,8.3
		c9,9,15.5,20.8,18.2,34C356.5,463.7,344.3,458.9,334.4,450.9z"/>
	
		<radialGradient id="SVGID_00000081616401090953954520000002904634794912709265_" cx="353.0556" cy="386.7085" r="194.0271" gradientUnits="userSpaceOnUse">
		<stop  offset="0" style="stop-color:#E4155D"/>
		<stop  offset="0.3551" style="stop-color:#E1155E"/>
		<stop  offset="0.6186" style="stop-color:#D81562"/>
		<stop  offset="0.852" style="stop-color:#C81669"/>
		<stop  offset="1" style="stop-color:#B9166F"/>
	</radialGradient>
	<path style="fill:url(#SVGID_00000081616401090953954520000002904634794912709265_);" d="M418.9,314.8
		c-2.5,10.3-7.3,19.7-13.8,27.4c-6.6,7.9-14.9,14.2-24.4,18c-6.7,2.7-13.9,4.2-21.5,4.2c-3,0-5.9-0.2-8.7-0.7
		c5.6,9.9,8.7,21.6,8.7,34c0,8.4-1.5,16.3-4,23.7c-0.1,0.1-0.1,0.2-0.1,0.3l-0.2-0.2c-9-11.5-14.4-26.4-14.4-42.7
		c0-5.9,0.7-11.6,2-17c0.6-2.4,1.3-4.8,2.1-7.1c2.1-6,5-11.5,8.6-16.4c1.3-2,2.9-3.8,4.4-5.6c11.2-12.6,27-20.4,44.5-20.4
		C408,312.4,413.6,313.3,418.9,314.8z"/>
	
		<radialGradient id="SVGID_00000051381743988868673990000018310851705030154394_" cx="423.3664" cy="409.9531" r="137.0182" gradientUnits="userSpaceOnUse">
		<stop  offset="0" style="stop-color:#E4155D"/>
		<stop  offset="0.3551" style="stop-color:#E1155E"/>
		<stop  offset="0.6186" style="stop-color:#D81562"/>
		<stop  offset="0.852" style="stop-color:#C81669"/>
		<stop  offset="1" style="stop-color:#B9166F"/>
	</radialGradient>
	<path style="fill:url(#SVGID_00000051381743988868673990000018310851705030154394_);" d="M463.9,378.8c0,24.3-12.1,45.6-30.2,57.1
		c-5.5,3.5-11.6,6.2-18,7.7c4.2-4.7,7.7-10,10.5-15.8c4.3-9.1,6.7-19.4,6.7-30.2c0-13.7-3.8-26.4-10.5-37
		c11.5-4.3,21.4-12.1,28.7-22.3C459.1,349.5,463.9,363.5,463.9,378.8z"/>
	
		<radialGradient id="SVGID_00000077295088438774637540000000888227984493600683_" cx="250.8419" cy="357.7342" r="72.1656" gradientUnits="userSpaceOnUse">
		<stop  offset="0" style="stop-color:#E4155D"/>
		<stop  offset="0.3551" style="stop-color:#E1155E"/>
		<stop  offset="0.6186" style="stop-color:#D81562"/>
		<stop  offset="0.852" style="stop-color:#C81669"/>
		<stop  offset="1" style="stop-color:#B9166F"/>
	</radialGradient>
	<path style="fill:url(#SVGID_00000077295088438774637540000000888227984493600683_);" d="M277.8,362.4c-4.7,1.2-9.7,1.9-14.7,1.9
		c-6,0-11.8-0.9-17.3-2.6c4.2-7,9.5-13.1,15.8-18C268,348.8,273.5,355.1,277.8,362.4z"/>
	
		<radialGradient id="SVGID_00000170254085942818264590000002837662078989368707_" cx="284.5508" cy="417.5332" r="4.7187" gradientUnits="userSpaceOnUse">
		<stop  offset="0" style="stop-color:#E4155D"/>
		<stop  offset="0.3551" style="stop-color:#E1155E"/>
		<stop  offset="0.6186" style="stop-color:#D81562"/>
		<stop  offset="0.852" style="stop-color:#C81669"/>
		<stop  offset="1" style="stop-color:#B9166F"/>
	</radialGradient>
	<path style="fill:url(#SVGID_00000170254085942818264590000002837662078989368707_);" d="M284.7,416.5c0.5,0.2,1.1,0.4,1.6,0.6
		c-0.7,0.3-1.4,0.6-2.1,0.9C284.4,417.5,284.5,417,284.7,416.5z"/>
	
		<radialGradient id="SVGID_00000170278940804637309980000014137894527774959034_" cx="333.6194" cy="422.892" r="106.7481" gradientUnits="userSpaceOnUse">
		<stop  offset="0" style="stop-color:#E4155D"/>
		<stop  offset="0.3551" style="stop-color:#E1155E"/>
		<stop  offset="0.6186" style="stop-color:#D81562"/>
		<stop  offset="0.852" style="stop-color:#C81669"/>
		<stop  offset="1" style="stop-color:#B9166F"/>
	</radialGradient>
	<path style="fill:url(#SVGID_00000170278940804637309980000014137894527774959034_);" d="M359.3,397.6c0,8.4-1.5,16.3-4,23.7
		c-0.1,0.1-0.1,0.2-0.1,0.3c-1,2.9-2.3,5.7-3.6,8.3c-4.3,8.2-10.1,15.4-17.1,21c-1.8,1.5-3.7,2.8-5.7,4c0.8-2.2,1.7-4.4,2.7-6.5
		c4-8.5,9.7-15.8,16.6-21.7c2.2-1.9,4.5-3.6,7-5.2c-9-11.5-14.4-26.4-14.4-42.7c0-5.9,0.7-11.6,2-17c0.6-2.4,1.3-4.8,2.1-7.1
		c2.2,2.8,4.2,5.7,5.9,8.9C356.1,373.6,359.3,385.2,359.3,397.6z"/>
	
		<radialGradient id="SVGID_00000109017134169997363150000005233024108548053929_" cx="348.1687" cy="335.6424" r="202.5395" gradientUnits="userSpaceOnUse">
		<stop  offset="0" style="stop-color:#E4155D"/>
		<stop  offset="0.3551" style="stop-color:#E1155E"/>
		<stop  offset="0.6186" style="stop-color:#D81562"/>
		<stop  offset="0.852" style="stop-color:#C81669"/>
		<stop  offset="1" style="stop-color:#B9166F"/>
	</radialGradient>
	<path style="fill:url(#SVGID_00000109017134169997363150000005233024108548053929_);" d="M420.5,305.1c-0.3,3.3-0.9,6.5-1.6,9.7
		c-2.5,10.3-7.3,19.7-13.8,27.4c-6.6,7.9-14.9,14.2-24.4,18c-6.7,2.7-13.9,4.2-21.5,4.2c-3,0-5.9-0.2-8.7-0.7c-2.8-0.4-5.4-1-8-1.8
		c0.6-2.4,1.3-4.8,2.1-7.1c-3.1-3.9-6.5-7.4-10.3-10.4c5-4,10.5-7.2,16.6-9.4c-6.6-10.5-10.4-23.3-10.4-36.9
		c0-8.2,1.4-16.1,3.9-23.3c11.6,19.8,33.2,33,57.8,33C408.6,307.7,414.7,306.8,420.5,305.1z"/>
	
		<radialGradient id="SVGID_00000123399238762642422070000008958507472495342501_" cx="213.5676" cy="324.6878" r="196.3429" gradientUnits="userSpaceOnUse">
		<stop  offset="0" style="stop-color:#E4155D"/>
		<stop  offset="0.3551" style="stop-color:#E1155E"/>
		<stop  offset="0.6186" style="stop-color:#D81562"/>
		<stop  offset="0.852" style="stop-color:#C81669"/>
		<stop  offset="1" style="stop-color:#B9166F"/>
	</radialGradient>
	<path style="fill:url(#SVGID_00000123399238762642422070000008958507472495342501_);" d="M277.8,362.4c-4.7,1.2-9.7,1.9-14.7,1.9
		c-6,0-11.8-0.9-17.3-2.6c-4.8-1.5-9.3-3.6-13.5-6.2c-8.8-5.4-16.1-13.1-21.5-22.3c-0.4-0.6-0.7-1.2-1.1-1.9
		c-5.3-9.8-8.3-21.1-8.3-33.3c0-24.6,12.4-46.1,30.9-57.5c18.4,11.5,30.8,33,30.8,57.5c0,0.5,0,1-0.1,1.5
		c-0.3,14.1-4.6,27.2-11.9,37.8c3.7,1.8,7.2,4,10.4,6.5C268,348.8,273.5,355.1,277.8,362.4z"/>
</g>
<g>
	
		<radialGradient id="SVGID_00000147915772996618846310000004192834987813971903_" cx="1159.6844" cy="604.8511" r="291.4176" gradientTransform="matrix(-1.2881 0.3349 0.3054 1.1745 1949.2125 -569.0345)" gradientUnits="userSpaceOnUse">
		<stop  offset="0" style="stop-color:#E4155D"/>
		<stop  offset="0.2361" style="stop-color:#D81560"/>
		<stop  offset="0.6601" style="stop-color:#B91668"/>
		<stop  offset="1" style="stop-color:#9B166F"/>
	</radialGradient>
	<path style="fill:url(#SVGID_00000147915772996618846310000004192834987813971903_);" d="M499.3,536.3
		c11.2,43.1,55.8,68.7,99.7,57.3c43.9-11.4,70.4-55.6,59.2-98.7c-11.2-43.1-55.8-68.7-99.7-57.3S488.1,493.3,499.3,536.3z"/>
	
		<radialGradient id="SVGID_00000031186784558741869130000004985964470180187575_" cx="937.5039" cy="616.6023" r="291.4176" gradientTransform="matrix(-1.2881 0.3349 0.3054 1.1745 1949.2125 -569.0345)" gradientUnits="userSpaceOnUse">
		<stop  offset="0" style="stop-color:#E4155D"/>
		<stop  offset="0.2361" style="stop-color:#D81560"/>
		<stop  offset="0.6601" style="stop-color:#B91668"/>
		<stop  offset="1" style="stop-color:#9B166F"/>
	</radialGradient>
	<path style="fill:url(#SVGID_00000031186784558741869130000004985964470180187575_);" d="M789.1,475.7
		c11.2,43.1,55.8,68.7,99.7,57.3c43.9-11.4,70.4-55.6,59.2-98.7c-11.2-43.1-55.8-68.7-99.7-57.3S777.9,432.6,789.1,475.7z"/>
	
		<radialGradient id="SVGID_00000119819341018283847500000002536902458927094717_" cx="1020.5284" cy="785.5392" r="291.4176" gradientTransform="matrix(-1.2881 0.3349 0.3054 1.1745 1949.2125 -569.0345)" gradientUnits="userSpaceOnUse">
		<stop  offset="0" style="stop-color:#E4155D"/>
		<stop  offset="0.2361" style="stop-color:#D81560"/>
		<stop  offset="0.6601" style="stop-color:#B91668"/>
		<stop  offset="1" style="stop-color:#9B166F"/>
	</radialGradient>
	<path style="fill:url(#SVGID_00000119819341018283847500000002536902458927094717_);" d="M733.7,701.9
		c11.2,43.1,55.8,68.7,99.7,57.3c43.9-11.4,70.4-55.6,59.2-98.7c-11.2-43.1-55.8-68.7-99.7-57.3C749,614.7,722.5,658.9,733.7,701.9z
		"/>
	
		<radialGradient id="SVGID_00000039830161354267083570000016506440078911836345_" cx="1128.679" cy="704.57" r="291.4176" gradientTransform="matrix(-1.2881 0.3349 0.3054 1.1745 1949.2125 -569.0345)" gradientUnits="userSpaceOnUse">
		<stop  offset="0" style="stop-color:#E4155D"/>
		<stop  offset="0.2361" style="stop-color:#D81560"/>
		<stop  offset="0.6601" style="stop-color:#B91668"/>
		<stop  offset="1" style="stop-color:#9B166F"/>
	</radialGradient>
	<path style="fill:url(#SVGID_00000039830161354267083570000016506440078911836345_);" d="M569.7,643.1
		c11.2,43.1,55.8,68.7,99.7,57.3c43.9-11.4,70.4-55.6,59.2-98.7c-11.2-43.1-55.8-68.7-99.7-57.3C585,555.8,558.5,600,569.7,643.1z"
		/>
	
		<radialGradient id="SVGID_00000176747496788998697200000008719288423177502101_" cx="961.6605" cy="716.3213" r="291.4176" gradientTransform="matrix(-1.2881 0.3349 0.3054 1.1745 1949.2125 -569.0345)" gradientUnits="userSpaceOnUse">
		<stop  offset="0" style="stop-color:#E4155D"/>
		<stop  offset="0.2361" style="stop-color:#D81560"/>
		<stop  offset="0.6601" style="stop-color:#B91668"/>
		<stop  offset="1" style="stop-color:#9B166F"/>
	</radialGradient>
	<path style="fill:url(#SVGID_00000176747496788998697200000008719288423177502101_);" d="M788.4,600.9
		c11.2,43.1,55.8,68.7,99.7,57.3c43.9-11.4,70.4-55.6,59.2-98.7c-11.2-43.1-55.8-68.7-99.7-57.3
		C803.7,513.7,777.2,557.8,788.4,600.9z"/>
	
		<radialGradient id="SVGID_00000147904534243673400490000015865928642300859021_" cx="1067.0012" cy="785.5392" r="291.4176" gradientTransform="matrix(-1.2881 0.3349 0.3054 1.1745 1949.2125 -569.0345)" gradientUnits="userSpaceOnUse">
		<stop  offset="0" style="stop-color:#E4155D"/>
		<stop  offset="0.2361" style="stop-color:#D81560"/>
		<stop  offset="0.6601" style="stop-color:#B91668"/>
		<stop  offset="1" style="stop-color:#9B166F"/>
	</radialGradient>
	<path style="fill:url(#SVGID_00000147904534243673400490000015865928642300859021_);" d="M673.9,717.5
		c11.2,43.1,55.8,68.7,99.7,57.3c43.9-11.4,70.4-55.6,59.2-98.7s-55.8-68.7-99.7-57.3C689.2,630.3,662.7,674.4,673.9,717.5z"/>
	
		<radialGradient id="SVGID_00000044888268951162266670000018442538746703720101_" cx="1143.8838" cy="785.5392" r="291.4176" gradientTransform="matrix(-1.2881 0.3349 0.3054 1.1745 1949.2125 -569.0345)" gradientUnits="userSpaceOnUse">
		<stop  offset="0" style="stop-color:#E4155D"/>
		<stop  offset="0.2361" style="stop-color:#D81560"/>
		<stop  offset="0.6601" style="stop-color:#B91668"/>
		<stop  offset="1" style="stop-color:#9B166F"/>
	</radialGradient>
	<path style="fill:url(#SVGID_00000044888268951162266670000018442538746703720101_);" d="M574.9,743.2
		c11.2,43.1,55.8,68.7,99.7,57.3c43.9-11.4,70.4-55.6,59.2-98.7s-55.8-68.7-99.7-57.3C590.1,656,563.7,700.2,574.9,743.2z"/>
	
		<radialGradient id="SVGID_00000083083431528167566370000007520127569381726871_" cx="967.8378" cy="571.7477" r="291.4176" gradientTransform="matrix(-1.2881 0.3349 0.3054 1.1745 1949.2125 -569.0345)" gradientUnits="userSpaceOnUse">
		<stop  offset="0" style="stop-color:#E4155D"/>
		<stop  offset="0.2361" style="stop-color:#D81560"/>
		<stop  offset="0.6601" style="stop-color:#B91668"/>
		<stop  offset="1" style="stop-color:#9B166F"/>
	</radialGradient>
	<path style="fill:url(#SVGID_00000083083431528167566370000007520127569381726871_);" d="M736.3,433.2
		c11.2,43.1,55.8,68.7,99.7,57.3c43.9-11.4,70.4-55.6,59.2-98.7c-11.2-43.1-55.8-68.7-99.7-57.3C751.6,346,725.1,390.1,736.3,433.2z
		"/>
	
		<radialGradient id="SVGID_00000005227678555418603160000010162670573909909914_" cx="1159.6844" cy="685.7352" r="291.4176" gradientTransform="matrix(-1.2881 0.3349 0.3054 1.1745 1949.2125 -569.0345)" gradientUnits="userSpaceOnUse">
		<stop  offset="0" style="stop-color:#E4155D"/>
		<stop  offset="0.2361" style="stop-color:#D81560"/>
		<stop  offset="0.6601" style="stop-color:#B91668"/>
		<stop  offset="1" style="stop-color:#9B166F"/>
	</radialGradient>
	<path style="fill:url(#SVGID_00000005227678555418603160000010162670573909909914_);" d="M524,631.3c11.2,43.1,55.8,68.7,99.7,57.3
		c43.9-11.4,70.4-55.6,59.2-98.7c-11.2-43.1-55.8-68.7-99.7-57.3C539.3,544.1,512.8,588.2,524,631.3z"/>
	
		<radialGradient id="SVGID_00000135682396777467093490000000643647641663597190_" cx="653.8725" cy="548.1794" r="291.4176" gradientTransform="matrix(1.3962 -0.363 0.3054 1.1745 -570.1548 86.003)" gradientUnits="userSpaceOnUse">
		<stop  offset="0" style="stop-color:#E4155D"/>
		<stop  offset="0.2361" style="stop-color:#D81560"/>
		<stop  offset="0.6601" style="stop-color:#B91668"/>
		<stop  offset="1" style="stop-color:#9B166F"/>
	</radialGradient>
	<path style="fill:url(#SVGID_00000135682396777467093490000000643647641663597190_);" d="M647.6,426.7
		c11.2,43.1-18.3,88-65.8,100.4c-47.6,12.4-95.2-12.5-106.4-55.6s18.3-88,65.8-100.4C588.8,358.7,636.4,383.6,647.6,426.7z"/>
	
		<radialGradient id="SVGID_00000173861322019946168200000018006860616733853320_" cx="1055.0408" cy="704.57" r="291.4176" gradientTransform="matrix(-1.2881 0.3349 0.3054 1.1745 1949.2125 -569.0345)" gradientUnits="userSpaceOnUse">
		<stop  offset="0" style="stop-color:#E4155D"/>
		<stop  offset="0.2361" style="stop-color:#D81560"/>
		<stop  offset="0.6601" style="stop-color:#B91668"/>
		<stop  offset="1" style="stop-color:#9B166F"/>
	</radialGradient>
	<path style="fill:url(#SVGID_00000173861322019946168200000018006860616733853320_);" d="M664.6,618.4
		c11.2,43.1,55.8,68.7,99.7,57.3c43.9-11.4,70.4-55.6,59.2-98.7c-11.2-43.1-55.8-68.7-99.7-57.3
		C679.9,531.2,653.4,575.3,664.6,618.4z"/>
	
		<radialGradient id="SVGID_00000039819774068263393410000000892691392889845406_" cx="1116.7185" cy="604.8511" r="291.4176" gradientTransform="matrix(-1.2881 0.3349 0.3054 1.1745 1949.2125 -569.0345)" gradientUnits="userSpaceOnUse">
		<stop  offset="0" style="stop-color:#E4155D"/>
		<stop  offset="0.2361" style="stop-color:#D81560"/>
		<stop  offset="0.6601" style="stop-color:#B91668"/>
		<stop  offset="1" style="stop-color:#9B166F"/>
	</radialGradient>
	<path style="fill:url(#SVGID_00000039819774068263393410000000892691392889845406_);" d="M554.7,521.9
		c11.2,43.1,55.8,68.7,99.7,57.3c43.9-11.4,70.4-55.6,59.2-98.7c-11.2-43.1-55.8-68.7-99.7-57.3S543.5,478.9,554.7,521.9z"/>
	
		<radialGradient id="SVGID_00000069372389832234255570000016640741998088419470_" cx="1020.5284" cy="604.8511" r="291.4176" gradientTransform="matrix(-1.2881 0.3349 0.3054 1.1745 1949.2125 -569.0345)" gradientUnits="userSpaceOnUse">
		<stop  offset="0" style="stop-color:#E4155D"/>
		<stop  offset="0.2361" style="stop-color:#D81560"/>
		<stop  offset="0.6601" style="stop-color:#B91668"/>
		<stop  offset="1" style="stop-color:#9B166F"/>
	</radialGradient>
	<path style="fill:url(#SVGID_00000069372389832234255570000016640741998088419470_);" d="M678.6,489.7
		c11.2,43.1,55.8,68.7,99.7,57.3c43.9-11.4,70.4-55.6,59.2-98.7c-11.2-43.1-55.8-68.7-99.7-57.3S667.4,446.6,678.6,489.7z"/>
</g>
<radialGradient id="SVGID_00000127764966270342803630000017447215813247562412_" cx="592.2906" cy="771.1654" r="378.4849" gradientUnits="userSpaceOnUse">
	<stop  offset="6.745881e-03" style="stop-color:#604219"/>
	<stop  offset="1.973741e-02" style="stop-color:#584717"/>
	<stop  offset="6.400923e-02" style="stop-color:#425512"/>
	<stop  offset="0.1163" style="stop-color:#31600E"/>
	<stop  offset="0.181" style="stop-color:#26670B"/>
	<stop  offset="0.2718" style="stop-color:#1F6C09"/>
	<stop  offset="0.5238" style="stop-color:#1D6D09"/>
	<stop  offset="0.5563" style="stop-color:#3C690D"/>
	<stop  offset="0.6115" style="stop-color:#696313"/>
	<stop  offset="0.6688" style="stop-color:#905E19"/>
	<stop  offset="0.7277" style="stop-color:#B05A1D"/>
	<stop  offset="0.7884" style="stop-color:#C95721"/>
	<stop  offset="0.8519" style="stop-color:#DA5523"/>
	<stop  offset="0.9198" style="stop-color:#E55325"/>
	<stop  offset="1" style="stop-color:#E85325"/>
</radialGradient>
<path style="fill:url(#SVGID_00000127764966270342803630000017447215813247562412_);" d="M548.3,991.1
	c-105.3-71.4-237.2-75.3-326.6-11.3c-125.5,89.9-116.1,276.8-54.8,386.4c57.1,102.1,160.1,138.4,187.4,147.6
	c97,32.6,180.6,13.8,213.2,4.7c27.1,10.7,130,47.6,239,2.3c135.7-56.4,217.6-214,186.7-355.2c-19.5-89.1-91.3-204.5-208.3-219.6
	c-72.5-9.3-131.7,24.4-156.4,40.7c5.1-17.4,10.2-34.8,15.3-52.2c-15.2,8.8-30.5,17.6-45.7,26.4c-6.2-10.9-12.5-21.9-18.7-32.8
	c-8.6,13.3-17.2,26.6-25.8,39.8c-18.7-7-37.5-14.1-56.2-21.1C514.3,961.7,531.3,976.4,548.3,991.1z"/>
<radialGradient id="SVGID_00000174577612084928669580000011657136486849252284_" cx="775.8994" cy="1803.7664" r="438.1826" gradientTransform="matrix(0.9996 2.829517e-02 -2.829517e-02 0.9996 38.0419 -11.5982)" gradientUnits="userSpaceOnUse">
	<stop  offset="4.649762e-02" style="stop-color:#7DAAD1"/>
	<stop  offset="0.1494" style="stop-color:#769DC8"/>
	<stop  offset="0.3406" style="stop-color:#627AB0"/>
	<stop  offset="0.5424" style="stop-color:#4A4F93"/>
	<stop  offset="0.722" style="stop-color:#2E3273"/>
	<stop  offset="0.8946" style="stop-color:#181B5A"/>
	<stop  offset="1" style="stop-color:#101351"/>
</radialGradient>
<path style="fill:url(#SVGID_00000174577612084928669580000011657136486849252284_);" d="M726.1,2351.4
	c-152.4-4.3-258.4-106.7-216.3-230.3c27.7-81.2,80.2-162.4,161.1-202.6c0,0,0,0,0,0c-14.3-17.2-23.6-40.1-25.7-65.3
	c24.8,10.9,49.6,21.9,74.4,32.8c6.3-27.7,12.7-55.4,19.1-83.2c5.9,21.6,11.8,43.1,17.7,64.7c21.1-20.8,42.1-41.6,63.2-62.4
	c-3.1,14.2-7.2,35.3-10.1,61.1c-1.3,11.2-1.9,20-2.5,27.1c145.1,9.3,252.4,95.6,254.9,237.3
	C1064.9,2303.6,878.5,2355.7,726.1,2351.4z"/>
<radialGradient id="SVGID_00000125572822026343483980000002468879406797363075_" cx="344.2411" cy="1876.8447" r="232.6277" gradientTransform="matrix(0.9996 2.829517e-02 -2.829517e-02 0.9996 38.0419 -11.5982)" gradientUnits="userSpaceOnUse">
	<stop  offset="4.649762e-02" style="stop-color:#7D85D3"/>
	<stop  offset="0.1723" style="stop-color:#686FB9"/>
	<stop  offset="0.3687" style="stop-color:#4A4F93"/>
	<stop  offset="0.6165" style="stop-color:#2E3273"/>
	<stop  offset="0.8547" style="stop-color:#181B5A"/>
	<stop  offset="1" style="stop-color:#101351"/>
</radialGradient>
<path style="fill:url(#SVGID_00000125572822026343483980000002468879406797363075_);" d="M241.9,2164.2
	c-78.4-11.1-169.5-71.9-178.2-170.5c-6.7-76.3,37.8-152.2,112.8-189.7c0,0,0,0,0,0c-14.3-17.2-23.6-40.1-25.7-65.3
	c24.8,10.9,49.6,21.9,74.4,32.8c6.3-27.7,12.7-55.4,19.1-83.2c5.9,21.6,11.8,43.1,17.7,64.7c21.1-20.8,42.1-41.6,63.2-62.4
	c-3.1,14.2-7.2,35.3-10.1,61.1c-1.3,11.2-1.9,20-2.5,27.1c8.9,0.3,102.5,5.4,150.9,83.3c38.1,61.4,21.9,125.6,18.6,138.4
	C458.2,2095,355,2180.2,241.9,2164.2z"/>
</svg>
