<?xml version="1.0" encoding="utf-8"?>
<!-- Generator: Adobe Illustrator 27.9.0, SVG Export Plug-In . SVG Version: 6.00 Build 0)  -->
<svg version="1.1" id="Layer_1" xmlns="http://www.w3.org/2000/svg" xmlns:xlink="http://www.w3.org/1999/xlink" x="0px" y="0px"
	 viewBox="0 0 1366 768" style="enable-background:new 0 0 1366 768;" xml:space="preserve">
<style type="text/css">
	.st0{fill:url(#SVGID_1_);}
	.st1{fill:url(#SVGID_00000145775295156660132810000013637795643422578848_);}
	.st2{fill:url(#SVGID_00000047028442093147041110000000223936500605182353_);}
	.st3{fill:url(#SVGID_00000088826382141916431300000015744408947972444592_);}
	.st4{fill:url(#SVGID_00000064338134178397134520000015423443534399894410_);}
</style>
<radialGradient id="SVGID_1_" cx="389.541" cy="885.6157" r="173.4816" gradientTransform="matrix(0.579 -0.8153 -1.1764 -0.8354 1834.5284 1508.3949)" gradientUnits="userSpaceOnUse">
	<stop  offset="1.951038e-02" style="stop-color:#6B366B"/>
	<stop  offset="0.1228" style="stop-color:#7D4D77"/>
	<stop  offset="0.4301" style="stop-color:#AD8E99"/>
	<stop  offset="0.6893" style="stop-color:#D1BDB2"/>
	<stop  offset="0.8871" style="stop-color:#E7DAC1"/>
	<stop  offset="1" style="stop-color:#EFE5C7"/>
</radialGradient>
<path class="st0" d="M1193.5,515.1c-26.2,3.2-47-17-51.2-21.2c-10.1,18-28.6,29.3-48.2,29.1c-24.5-0.3-46.8-18.6-52.9-44.7
	c-19.9,15.7-47.6,17.5-69.3,4.4c-21.7-13-33.1-38.2-28.6-63.1c-6.4,0.2-24.5-0.3-38.9-13c-19.1-16.9-23.8-48.6-9.8-77.3
	c-3.9-5-8.5-12.6-8.9-22c-0.9-20.8,19.3-36.6,39-51.5c17.4-13.2,38.1-28.4,71.2-37.8c39.6-11.3,56.1-3.4,109.7-6.7
	c27.3-1.7,42.2,2.4,58.5-7.7c11.1-6.8,15.1-14.4,33-34.4c14.1-15.8,26.5-27.7,34.6-35.2c0.8-0.4,7.9-4.1,15.7-0.6
	c8.1,3.6,9.9,11.8,10.1,12.6c-17.2,9.9-40.7,27.2-51.6,55.5c-6.3,16.4-9.3,39,18.6,133c18.4,62.2,28.7,83.1,27.6,103.8
	c-0.2,4.6-1.2,9.4-2.6,14.7C1248.7,455.8,1233.4,510.2,1193.5,515.1z"/>
<radialGradient id="SVGID_00000103266367756304742260000015554252646810976162_" cx="1126.3777" cy="427.1253" r="256.6408" gradientTransform="matrix(1.3841 0 0 -1.456 -680.3452 1283.0754)" gradientUnits="userSpaceOnUse">
	<stop  offset="1.240079e-03" style="stop-color:#EFE075"/>
	<stop  offset="0.2678" style="stop-color:#EFDE74"/>
	<stop  offset="0.3639" style="stop-color:#EFD772"/>
	<stop  offset="0.4324" style="stop-color:#EFCB6D"/>
	<stop  offset="0.4877" style="stop-color:#F0BB67"/>
	<stop  offset="0.5352" style="stop-color:#F0A55E"/>
	<stop  offset="0.5771" style="stop-color:#F18954"/>
	<stop  offset="0.6152" style="stop-color:#F26948"/>
	<stop  offset="0.65" style="stop-color:#F34339"/>
	<stop  offset="0.6811" style="stop-color:#F41A2A"/>
	<stop  offset="0.6945" style="stop-color:#F40622"/>
</radialGradient>
<path style="fill:url(#SVGID_00000103266367756304742260000015554252646810976162_);" d="M835,609.1c-11.8,43.4-23.7,54.8-29.7,59.7
	c-2.2,1.8-27.9,22.1-44.6,11.4c-5.2-3.3-8-8.7-9.5-12.8c-3,3.5-10.6,11.1-21.9,12.4c-11.4,1.3-20.3-4.6-25.4-8.2
	c-20.8-14.4-58.7-61.8-45.9-116.5c2.3-9.8,12-51.4,43.2-58.3c16.3-3.6,31.1,3.9,40.1,10.1c0.8-14.1,4.3-31.1,4.4-31.6
	c4.1-1.5,8.2-2.9,12.3-4.4l-2.9,35.9c5.7-6.7,15.7-15.6,30-18.6c23.5-4.9,46.1,8.9,56.7,25.6C855.2,534.9,848.5,559.7,835,609.1z"/>
<radialGradient id="SVGID_00000054249705983410565570000013463628280660378240_" cx="486.9688" cy="228.75" r="257.3042" gradientTransform="matrix(0.9572 0.2895 0.2895 -0.9572 -287.31 501.1954)" gradientUnits="userSpaceOnUse">
	<stop  offset="0.1274" style="stop-color:#12600A"/>
	<stop  offset="0.5756" style="stop-color:#A00E6C"/>
	<stop  offset="0.7283" style="stop-color:#9E0E6B"/>
	<stop  offset="0.8102" style="stop-color:#960E66"/>
	<stop  offset="0.8753" style="stop-color:#880F5D"/>
	<stop  offset="0.9316" style="stop-color:#750F51"/>
	<stop  offset="0.9816" style="stop-color:#5C1041"/>
	<stop  offset="1" style="stop-color:#51103A"/>
</radialGradient>
<path style="fill:url(#SVGID_00000054249705983410565570000013463628280660378240_);" d="M191.5,716.3c-3.8-13.1-11-34-24.8-57
	c-29.5-48.9-59.8-58.4-61.1-90.4c-0.9-20.5,10.3-46.8,29-55.2c20.2-9.1,41.3,6.4,82.6-5.3c3.5-1,6.3-1.9,7.9-2.5
	c-4.2-10.5-8.3-24.1-10.2-40.2c-3.9-32.4,2.9-58.9,8.3-74.3c-9.1,40.7-4.7,59,1.7,68c1.8,2.6,8.9,11.5,9.4,24
	c0.2,5.4-0.9,9.8-1.8,12.8c1-1.3,2.4-3.3,4.3-5.6c8.2-9.8,16.1-15.5,18.3-17.1c6.6-4.9,16.7-14.1,32.2-33c-4,9.6-12,25.3-27.4,40.2
	c-10,9.7-20.2,16.1-28.4,20.3c-0.3,1.4-0.6,2.8-0.9,4.2c-0.1,0.1-0.2,0.2-0.3,0.2c0.1,0,0.1-0.1,0.2-0.1c-0.1,0.3-0.1,0.6-0.2,0.9
	c2.2,1.9,5.9,4.8,10.7,7.9c28,18.3,45.5,11.8,64.9,23.7c16.5,10.2,28.4,30.2,29.4,50.2c1.4,28.7-20.2,48.9-24.2,52.5
	c-23.7,21.4-45.3,12.2-76.5,30.5C212.6,683.9,199.3,702.4,191.5,716.3z"/>
<radialGradient id="SVGID_00000003104729853556058500000013869114962261411007_" cx="-229.1192" cy="995.8267" r="696.2062" gradientTransform="matrix(0.8225 -0.5687 -0.5687 -0.8225 840.23 770.0629)" gradientUnits="userSpaceOnUse">
	<stop  offset="0.1204" style="stop-color:#195E2E"/>
	<stop  offset="0.1897" style="stop-color:#477643"/>
	<stop  offset="0.291" style="stop-color:#84955E"/>
	<stop  offset="0.384" style="stop-color:#B4AD73"/>
	<stop  offset="0.4653" style="stop-color:#D7BF83"/>
	<stop  offset="0.532" style="stop-color:#ECCA8D"/>
	<stop  offset="0.5756" style="stop-color:#F4CE90"/>
	<stop  offset="0.7841" style="stop-color:#F4D092"/>
	<stop  offset="0.8958" style="stop-color:#F4D59A"/>
	<stop  offset="0.9845" style="stop-color:#F4DFA8"/>
	<stop  offset="1" style="stop-color:#F4E1AB"/>
</radialGradient>
<path style="fill:url(#SVGID_00000003104729853556058500000013869114962261411007_);" d="M585.9,577.1
	c-29.9-19.4-83.6-54.4-151.5-99c-66.5-43.7-190.9-126.4-183.1-171.5c0.4-2.5,4.9-25.7,15.3-54.9c2.6-7.2,4.9-13,6.5-16.9
	c-5.6,0.2-50.8,0.6-82.3-37c-31.7-37.8-23.2-82.4-22.1-87.8c20.7,16.5,36.4,31.6,47.4,42.8c24.1,24.6,50.1,56.4,50.1,56.4
	c-0.8-3.3-2-8.5-3.6-14.9c-17.9-71.2-31.2-91.9-26-124.9c1.1-6.8,3.4-17,9.1-29.2c11,19.9,26.9,54.8,31.3,101.1
	c2.9,30.2,0,56.2-3.9,75.8c2,2.4,4,4.8,6,7.2c0,0.3,0.1,0.5,0.1,0.8c0-0.2,0.1-0.3,0.1-0.5c0.4,0.5,0.8,1,1.2,1.5
	c6.5-2,16.2-4.8,28-7.5c9.3-2.2,36.3-8.4,49.6-8.3c37.6,0.2,67.8,50.3,91.4,90.3c25.9,44,38.7,79.4,46.3,99.2
	C512.6,443.1,540,504.5,585.9,577.1z"/>
<radialGradient id="SVGID_00000160901392068966997140000002569560194341393303_" cx="283.6844" cy="1087.0048" r="363.8466" gradientTransform="matrix(0.8295 -0.5585 -0.5585 -0.8295 779.9497 1220.4446)" gradientUnits="userSpaceOnUse">
	<stop  offset="0.1204" style="stop-color:#195E2E"/>
	<stop  offset="0.1701" style="stop-color:#386329"/>
	<stop  offset="0.2766" style="stop-color:#756E1E"/>
	<stop  offset="0.3743" style="stop-color:#A57615"/>
	<stop  offset="0.4597" style="stop-color:#C87C0F"/>
	<stop  offset="0.5298" style="stop-color:#DD800B"/>
	<stop  offset="0.5756" style="stop-color:#E5810A"/>
	<stop  offset="0.6997" style="stop-color:#E5820C"/>
	<stop  offset="0.7663" style="stop-color:#E68714"/>
	<stop  offset="0.8193" style="stop-color:#E78F22"/>
	<stop  offset="0.8651" style="stop-color:#E99B35"/>
	<stop  offset="0.9063" style="stop-color:#EBAA4E"/>
	<stop  offset="0.9441" style="stop-color:#EEBC6D"/>
	<stop  offset="0.9786" style="stop-color:#F2D191"/>
	<stop  offset="1" style="stop-color:#F4E1AB"/>
</radialGradient>
<path style="fill:url(#SVGID_00000160901392068966997140000002569560194341393303_);" d="M670.9,421.8
	c-28.6-26-166.5-151.6-162.9-170.1c0.7-3.7,2.1-6.6,3.5-8.7c-15.2-9.2-30.5-14.6-42.3-19.6c-22.3-9.5-36.8-26.5-44.8-37.7
	c28.8-8.4,43.2-0.6,51.1,8.5c4.7,5.5,10.6,15.3,22.8,24.9c2,1.5,5.6,5.6,9.8,10.7c-0.5-2.4-1-5-1.8-7.7c-3.8-14.1-8.9-22.1-11.4-28
	c-4.3-9.8-6.5-25.7,3.7-51.7c5.5,10.4,13.5,28.5,15.5,52.4c1.3,15.6-0.3,29-2.5,39.2c1,1.2,2,2.5,3.1,3.8c0,0.1,0,0.3,0,0.4
	c0-0.1,0-0.2,0.1-0.3c0.2,0.3,0.4,0.5,0.6,0.8c1.8-1.2,6.9-4,14.5-3.7C550,235.6,654.8,397,670.9,421.8z"/>
</svg>
