<?xml version="1.0" encoding="utf-8"?>
<!-- Generator: Adobe Illustrator 27.9.0, SVG Export Plug-In . SVG Version: 6.00 Build 0)  -->
<svg version="1.1" id="Layer_1" xmlns="http://www.w3.org/2000/svg" xmlns:xlink="http://www.w3.org/1999/xlink" x="0px" y="0px"
	 viewBox="0 0 1125 2436" style="enable-background:new 0 0 1125 2436;" xml:space="preserve">
<style type="text/css">
	.st0{fill:url(#SVGID_1_);}
	.st1{fill:url(#SVGID_00000047754429957928115430000009885974307251636649_);}
	.st2{fill:url(#SVGID_00000011020376360439160440000001340536458833536666_);}
</style>
<radialGradient id="SVGID_1_" cx="446.3932" cy="672.5132" r="314.9948" gradientTransform="matrix(0.579 -0.8153 1.1764 0.8354 -603.1819 474.6757)" gradientUnits="userSpaceOnUse">
	<stop  offset="1.951038e-02" style="stop-color:#6B366B"/>
	<stop  offset="0.1228" style="stop-color:#7D4D77"/>
	<stop  offset="0.4301" style="stop-color:#AD8E99"/>
	<stop  offset="0.6893" style="stop-color:#D1BDB2"/>
	<stop  offset="0.8871" style="stop-color:#E7DAC1"/>
	<stop  offset="1" style="stop-color:#EFE5C7"/>
</radialGradient>
<path class="st0" d="M764.6,789c-47.6,5.8-85.4-30.8-92.9-38.5c-18.3,32.7-52,53.2-87.6,52.8c-44.5-0.5-85-33.8-96-81.1
	c-36.1,28.5-86.4,31.8-125.8,8.1c-39.4-23.6-60.1-69.4-52-114.6c-11.7,0.3-44.6-0.5-70.7-23.7c-34.6-30.7-43.3-88.2-17.9-140.4
	c-7.1-9.1-15.4-22.8-16.2-39.9c-1.6-37.8,35-66.4,70.8-93.6c31.6-24,69.2-51.5,129.2-68.7c71.8-20.5,101.9-6.3,199.2-12.2
	c49.5-3,76.7,4.3,106.3-14c20.1-12.4,27.4-26.1,59.9-62.5c25.6-28.6,48.1-50.3,62.9-64c1.5-0.8,14.4-7.4,28.5-1
	c14.7,6.6,18,21.4,18.3,22.9c-31.3,17.9-73.9,49.4-93.6,100.8c-11.4,29.8-16.8,70.8,33.7,241.4c33.4,112.9,52.2,150.9,50.2,188.5
	c-0.5,8.4-2.2,17.1-4.7,26.7C864.8,681.4,837.1,780.2,764.6,789z"/>
<radialGradient id="SVGID_00000103961574436927240280000008199092063023318412_" cx="1117.4552" cy="1446.1105" r="844.2819" gradientTransform="matrix(1.3841 0 0 1.456 -587.7762 -598.1599)" gradientUnits="userSpaceOnUse">
	<stop  offset="1.240079e-03" style="stop-color:#EFE075"/>
	<stop  offset="0.2678" style="stop-color:#EFDE74"/>
	<stop  offset="0.3639" style="stop-color:#EFD772"/>
	<stop  offset="0.4324" style="stop-color:#EFCB6D"/>
	<stop  offset="0.4877" style="stop-color:#F0BB67"/>
	<stop  offset="0.5352" style="stop-color:#F0A55E"/>
	<stop  offset="0.5771" style="stop-color:#F18954"/>
	<stop  offset="0.6152" style="stop-color:#F26948"/>
	<stop  offset="0.65" style="stop-color:#F34339"/>
	<stop  offset="0.6811" style="stop-color:#F41A2A"/>
	<stop  offset="0.6945" style="stop-color:#F40622"/>
</radialGradient>
<path style="fill:url(#SVGID_00000103961574436927240280000008199092063023318412_);" d="M815.3,1336.1
	c-39,142.9-77.8,180.2-97.8,196.4c-7.2,5.8-91.9,72.6-146.7,37.4c-17.1-11-26.2-28.7-31.1-42.1c-10,11.4-35,36.6-72,40.9
	c-37.5,4.4-66.7-15.2-83.6-26.9c-68.4-47.5-193-203.5-151.1-383.3c7.5-32.2,39.3-169,142.2-191.7c53.6-11.8,102.2,12.7,131.8,33.3
	c2.7-46.5,14.3-102.2,14.4-103.9c13.5-4.8,26.9-9.6,40.4-14.3l-9.6,118.1c18.9-22.1,51.5-51.4,98.5-61.2
	c77.2-16.1,151.6,29.3,186.6,84.1C881.8,1092.1,859.6,1173.4,815.3,1336.1z"/>
<radialGradient id="SVGID_00000181765721514602992140000005028012506674293945_" cx="760.1587" cy="1584.9922" r="795.5173" gradientTransform="matrix(0.731 0.6824 -0.6824 0.731 1340.9174 -11.441)" gradientUnits="userSpaceOnUse">
	<stop  offset="0.1274" style="stop-color:#12600A"/>
	<stop  offset="0.5756" style="stop-color:#A00E6C"/>
	<stop  offset="0.7283" style="stop-color:#9E0E6B"/>
	<stop  offset="0.8102" style="stop-color:#960E66"/>
	<stop  offset="0.8753" style="stop-color:#880F5D"/>
	<stop  offset="0.9316" style="stop-color:#750F51"/>
	<stop  offset="0.9816" style="stop-color:#5C1041"/>
	<stop  offset="1" style="stop-color:#51103A"/>
</radialGradient>
<path style="fill:url(#SVGID_00000181765721514602992140000005028012506674293945_);" d="M266.2,2405.7c7.4-41.5,16-109.4,8.9-192
	c-15-176-86.1-243.7-46.1-334.2c25.6-58.1,92.6-115.8,155.9-113.6c68.4,2.4,105.7,74.1,236.3,98.2c11,2,20,3.2,25.4,3.9
	c2.8-34.8,9.9-78.1,26.4-125.4c33.3-95.3,88.5-159.5,124.4-194.9c-80.7,100.6-93.6,157.2-88.1,190.8c1.6,9.7,9,44.2-6.8,79.5
	c-6.8,15.2-15.9,26.1-22.6,33c4.5-2.4,11.2-5.8,19.6-9.5c36.1-16,65.9-21,74.2-22.5c25.1-4.6,65.7-16.4,134.5-47.7
	c-24.3,21.2-67.9,53.9-130.8,74c-41,13.1-77.9,17-106.4,17.5c-2.7,3.4-5.4,7-8.2,10.5c-0.4,0.1-0.7,0.2-1,0.3c0.2,0,0.5,0,0.7,0
	c-0.6,0.7-1.1,1.4-1.7,2.2c3.6,8.2,9.8,21.3,18.9,36.6c52.8,89,110.2,94.8,147.5,154.4c31.7,50.8,37.6,122.6,12.8,179.5
	c-35.4,81.5-122.8,108.2-138.7,112.7c-95,27-142.3-28-253.9-19.9C369,2344.7,307,2377.9,266.2,2405.7z"/>
</svg>
