<?xml version="1.0" encoding="UTF-8"?>
<svg id="Layer_2" data-name="Layer 2" xmlns="http://www.w3.org/2000/svg" xmlns:xlink="http://www.w3.org/1999/xlink" viewBox="0 0 196 187.69">
  <defs>
    <style>
      .cls-1 {
        fill: #fff;
        font-family: Kodchasan-Medium, Kodchasan;
        font-size: 21px;
        font-weight: 500;
      }

      .cls-2 {
        fill: url(#radial-gradient);
        stroke-width: 0px;
      }

      .cls-3 {
        letter-spacing: -.05em;
      }
    </style>
    <radialGradient id="radial-gradient" cx="34.58" cy="73.66" fx="34.58" fy="73.66" r="95.94" gradientTransform="translate(145.3 24.49) rotate(82.64) scale(1 1.58)" gradientUnits="userSpaceOnUse">
      <stop offset=".02" stop-color="#576835"/>
      <stop offset=".23" stop-color="#5c6131"/>
      <stop offset=".52" stop-color="#6a4f28"/>
      <stop offset=".86" stop-color="#803118"/>
      <stop offset="1" stop-color="#8c2311"/>
    </radialGradient>
  </defs>
  <g id="Layer_1-2" data-name="Layer 1">
    <path class="cls-2" d="m187.78,123.84c-11.44,30.51-41.55,66.72-72.54,63.67-7.26-.71-12.97-3.43-16.65-5.59-6.54,2.54-16.58,5.4-28.54,4.47-32.6-2.52-55.6-31.33-64.22-53.61-15.35-39.7.35-96.4,38.06-107.23,17.31-4.97,34.63,1.07,45.47,6.38-.48-5.54-.02-10.1.53-13.35.92-5.47,2.21-12.12,7.52-16.01.65-.48,4.91-3.6,7.94-2.23.85.39.96.84,3.16,2.23,2.14,1.36,3.22,1.68,3.17,2.23-.06.66-1.61.71-3.47,1.64-2.01,1.01-3.17,2.44-4.05,3.56-2.96,3.75-3.12,7.77-3.17,9.68-.14,5.33,1.83,9.57,3.79,12.87,8.49-2.5,20.92-4.71,35.43-2.54,5.54.83,30.42,4.54,45.19,23.46,19.43,24.87,7.1,57.74,2.38,70.36Z"/>
    <text class="cls-1" transform="translate(59.01 119.57) rotate(2)"><tspan class="cls-3" x="0" y="0">Ev</tspan><tspan x="24.46" y="0">ents</tspan></text>
  </g>
</svg>