<?xml version="1.0" encoding="UTF-8"?>
<svg id="Layer_2" data-name="Layer 2" xmlns="http://www.w3.org/2000/svg" xmlns:xlink="http://www.w3.org/1999/xlink" viewBox="0 0 196 206.19">
  <defs>
    <style>
      .cls-1 {
        font-family: Kodchasan-Medium, Kodchasan;
        font-size: 21px;
        font-weight: 500;
      }

      .cls-2 {
        fill: url(#radial-gradient);
        stroke-width: 0px;
      }

      .cls-3 {
        letter-spacing: -.02em;
      }

      .cls-4 {
        letter-spacing: -.01em;
      }

      .cls-5 {
        letter-spacing: 0em;
      }
    </style>
    <radialGradient id="radial-gradient" cx="69.89" cy="170.27" fx="69.89" fy="170.27" r="93.31" gradientTransform="translate(-166.03 84.66) rotate(-54.62) scale(.98 1.41)" gradientUnits="userSpaceOnUse">
      <stop offset=".02" stop-color="#6b366b"/>
      <stop offset=".12" stop-color="#7c4d77"/>
      <stop offset=".43" stop-color="#ad8d99"/>
      <stop offset=".69" stop-color="#d0bdb2"/>
      <stop offset=".89" stop-color="#e6dac1"/>
      <stop offset="1" stop-color="#efe5c7"/>
    </radialGradient>
  </defs>
  <g id="Layer_1-2" data-name="Layer 1">
    <path class="cls-2" d="m162.29,202.03c-13.81,1.67-24.78-8.95-26.98-11.17-5.33,9.49-15.09,15.46-25.42,15.34-12.92-.15-24.68-9.8-27.87-23.55-10.48,8.28-25.07,9.22-36.52,2.34-11.42-6.86-17.45-20.16-15.09-33.28-3.39.08-12.94-.15-20.52-6.87C-.15,135.92-2.67,119.22,4.72,104.09,2.64,101.46.23,97.47.02,92.51c-.48-10.98,10.15-19.27,20.56-27.16,9.18-6.96,20.1-14.96,37.51-19.93,20.85-5.96,29.57-1.82,57.82-3.55,14.37-.88,22.26,1.25,30.86-4.06,5.84-3.6,7.94-7.56,17.4-18.13,7.44-8.32,13.97-14.62,18.25-18.58.43-.23,4.17-2.15,8.28-.29,4.25,1.92,5.22,6.22,5.3,6.65-9.08,5.21-21.47,14.34-27.18,29.26-3.31,8.65-4.88,20.57,9.78,70.08,9.7,32.76,15.15,43.82,14.56,54.73-.13,2.45-.63,4.96-1.38,7.76-.4,1.49-8.46,30.19-29.5,32.74Z"/>
    <text class="cls-1" transform="translate(54.68 128.86)"><tspan class="cls-3" x="0" y="0">C</tspan><tspan class="cls-4" x="15.35" y="0">o</tspan><tspan class="cls-5" x="28.62" y="0">nta</tspan><tspan class="cls-3" x="63.44" y="0">c</tspan><tspan class="cls-5" x="75.35" y="0">t</tspan></text>
  </g>
</svg>