<?xml version="1.0" encoding="UTF-8"?>
<svg id="Layer_2" data-name="Layer 2" xmlns="http://www.w3.org/2000/svg" xmlns:xlink="http://www.w3.org/1999/xlink" viewBox="0 0 498.68 720.16">
  <defs>
    <style>
      .cls-1 {
        fill: url(#radial-gradient);
        stroke-width: 0px;
      }
    </style>
    <radialGradient id="radial-gradient" cx="245.13" cy="291.16" fx="-63.19" fy="320.44" r="309.7" gradientUnits="userSpaceOnUse">
      <stop offset="0" stop-color="#6daf27"/>
      <stop offset=".22" stop-color="#5a812f"/>
      <stop offset=".55" stop-color="#3f3e3c"/>
      <stop offset=".71" stop-color="#352442"/>
      <stop offset=".89" stop-color="#2d0e2a"/>
      <stop offset="1" stop-color="#2b0621"/>
    </radialGradient>
  </defs>
  <g id="Layer_1-2" data-name="Layer 1">
    <path class="cls-1" d="m424.95,542.95c-29.01,98.51-33.75,146.91-69.11,157.08-25.86,7.44-57.8-7.72-74.35-27.48-13.46,23.07-30.46,38.93-53,44.92-33.83,9-73.09-5.68-96.81-29.09-5.38,5.77-11.26,9.22-17.83,11.56-22.21,7.86-49.38,1.7-66.57-12.04-34.92-27.95-14.43-75.82-22.88-183.11-7.97-101.1-30.35-112.02-22.91-190.75.98-10.23,7.58-73.4,43.97-124.37,7.36-10.28,34.92-48.88,68.38-49.6,1.48-.03,34.58-.78,58.6,31.54,9.92-4.96,20.68-8.86,32.05-11.29,5.02-18.22,9.25-38.71,11.82-61.14,4.07-35.67,2.81-66.88,0-91.57,17.81-2.54,35.61-5.07,53.42-7.64-6.24,29.84-11.37,70.47-7.64,118.27,1.25,16.25,3.4,31.38,6.05,45.31,10.73,3.15,22.46,7.94,33.66,15.27,15.16-12.29,33.77-20.84,54.03-21.21h.17c16.78-.22,37.48,5.55,69.25,33.27,18.98,16.52,49.04,42.75,64.54,77.36,27.64,61.75-13.49,100.26-64.85,274.68Z"/>
  </g>
</svg>