<?xml version="1.0" encoding="UTF-8"?>
<svg id="Layer_2" data-name="Layer 2" xmlns="http://www.w3.org/2000/svg" xmlns:xlink="http://www.w3.org/1999/xlink" viewBox="0 0 359 391">
  <defs>
    <style>
      .cls-1 {
        fill: url(#radial-gradient);
        stroke-width: 0px;
      }
    </style>
    <radialGradient id="radial-gradient" cx="61.03" cy="73.04" fx="61.03" fy="73.04" r="72.66" gradientTransform="translate(-102.93 -110.38) scale(1.57)" gradientUnits="userSpaceOnUse">
      <stop offset="0" stop-color="#4c3c0d"/>
      <stop offset=".16" stop-color="#6b540f"/>
      <stop offset=".43" stop-color="#977713"/>
      <stop offset=".67" stop-color="#b89015"/>
      <stop offset=".86" stop-color="#cba017"/>
      <stop offset="1" stop-color="#d3a618"/>
    </radialGradient>
  </defs>
  <g id="Layer_1-2" data-name="Layer 1">
    <path class="cls-1" d="m21.24,126.64c15.46,21.23,23.05,31.98,33,42.5,16,16.91,20.39,17.34,34.45,33.31,15.45,17.54,25,28.38,29.4,44.48,6.85,25.03-6.59,34.11-3.01,60.42,4.06,29.88,25.69,49.81,31.69,55.35,32.93,30.36,81.61,33.4,116.71,22.64,64.72-19.84,106.72-93.79,92.88-153.63-1.01-4.35-11.94-48.73-48.73-67.44-22.94-11.67-32.81-1.59-70.24-9.92-11.74-2.61-52.16-12.07-84.44-42.23-35.84-33.47-25.29-61.44-56.37-74.44-21.06-8.81-36.96-.88-54.73-16.95C31.69,11.53,27.02,0,16.62,0,10.5,0,3.58,3.99.99,9.82c-4.83,10.84,9.52,18.48,11.43,36.78C14.57,67.18-2.02,72.43.21,92.35c.37,3.28,1.27,7.15,21.03,34.29Z"/>
  </g>
</svg>