<?xml version="1.0" encoding="UTF-8"?>
<svg id="Layer_2" data-name="Layer 2" xmlns="http://www.w3.org/2000/svg" xmlns:xlink="http://www.w3.org/1999/xlink" viewBox="0 0 196 213.47">
  <defs>
    <style>
      .cls-1 {
        fill: #fff;
        font-family: Kodchasan-Medium, Kodchasan;
        font-size: 21px;
        font-weight: 500;
      }

      .cls-2 {
        letter-spacing: 0em;
      }

      .cls-3 {
        fill: url(#radial-gradient);
        stroke-width: 0px;
      }

      .cls-4 {
        letter-spacing: 0em;
      }
    </style>
    <radialGradient id="radial-gradient" cx="-502.18" cy="-254.68" fx="-502.18" fy="-254.68" r="39.67" gradientTransform="translate(786.38 400.59) scale(1.57)" gradientUnits="userSpaceOnUse">
      <stop offset="0" stop-color="#4c3c0d"/>
      <stop offset=".16" stop-color="#6b540f"/>
      <stop offset=".43" stop-color="#977713"/>
      <stop offset=".67" stop-color="#b89015"/>
      <stop offset=".86" stop-color="#cba017"/>
      <stop offset="1" stop-color="#d3a618"/>
    </radialGradient>
  </defs>
  <g id="Layer_1-2" data-name="Layer 1">
    <path class="cls-3" d="m11.6,69.14c8.44,11.59,12.58,17.46,18.02,23.21,8.73,9.23,11.13,9.47,18.81,18.19,8.43,9.58,13.65,15.5,16.05,24.28,3.74,13.67-3.6,18.62-1.65,32.99,2.22,16.31,14.02,27.2,17.3,30.22,17.98,16.58,44.55,18.23,63.72,12.36,35.34-10.83,58.27-51.21,50.71-83.88-.55-2.38-6.52-26.61-26.6-36.82-12.53-6.37-17.91-.87-38.35-5.41-6.41-1.43-28.47-6.59-46.1-23.05-19.57-18.27-13.8-33.54-30.78-40.64-11.5-4.81-20.18-.48-29.88-9.26C17.3,6.29,14.75,0,9.08,0,5.73,0,1.96,2.18.54,5.36c-2.64,5.92,5.2,10.09,6.24,20.08C7.96,36.68-1.1,39.54.11,50.42c.2,1.79.69,3.9,11.48,18.72Z"/>
    <text class="cls-1" transform="translate(90.16 149.15) rotate(2)"><tspan x="0" y="0">A</tspan><tspan class="cls-2" x="15.31" y="0">b</tspan><tspan class="cls-4" x="29.13" y="0">out</tspan></text>
  </g>
</svg>