<?xml version="1.0" encoding="UTF-8"?>
<svg id="Layer_2" data-name="Layer 2" xmlns="http://www.w3.org/2000/svg" xmlns:xlink="http://www.w3.org/1999/xlink" viewBox="0 0 278.65 143.65">
  <defs>
    <style>
      .cls-1 {
        fill: url(#linear-gradient);
        stroke-width: 0px;
      }
    </style>
    <linearGradient id="linear-gradient" x1="129.5" y1="35.18" x2="159.5" y2="116.55" gradientUnits="userSpaceOnUse">
      <stop offset="0" stop-color="#7f9647"/>
      <stop offset=".31" stop-color="#3e6121"/>
      <stop offset=".52" stop-color="#19420c"/>
      <stop offset=".78" stop-color="#1b3108"/>
      <stop offset="1" stop-color="#1d2806"/>
    </linearGradient>
  </defs>
  <g id="Layer_1-2" data-name="Layer 1">
    <path class="cls-1" d="m217.88,8.77c-19.84,10.11-34.92,22.54-37.34,24.51-13.87,11.24-33.72,18.05-74.68,25.67-40.25,7.49-61.85,10.5-61.85,10.5-9.11,1.27-20.68,2.75-30.34,11.67-8.16,7.53-11.4,17.08-12.84,23.34-.73,3.16-1.43,8.23,0,14,4.06,16.38,21.41,22.67,23.34,23.34,11.31,3.9,21.13.9,32.67-2.33,46.68-13.09,36.21-6.12,61.85-15.17,49.41-17.44,41.93-26.98,96.85-50.18,23.9-10.1,54.28-20.52,54.84-36.17.17-4.59-2.05-14.41,3.5-24.51,1.65-3,3.51-5.17,4.76-6.47-3.49-2.32-6.98-4.65-10.47-6.97-1.69,1.72-4.43,4.02-8.29,5.27-8.82,2.85-14.83-2.6-25.13-2.24-3.93.14-7.77,1.1-16.88,5.74Z"/>
  </g>
</svg>