<?xml version="1.0" encoding="UTF-8"?>
<svg id="Layer_2" data-name="Layer 2" xmlns="http://www.w3.org/2000/svg" xmlns:xlink="http://www.w3.org/1999/xlink" viewBox="0 0 481.03 127.49">
  <defs>
    <style>
      .cls-1 {
        fill: url(#linear-gradient);
        stroke-width: 0px;
      }
    </style>
    <linearGradient id="linear-gradient" x1="247.35" y1="-32.67" x2="295.57" y2="98.09" gradientTransform="translate(-3.51 -54.69) rotate(19.89)" gradientUnits="userSpaceOnUse">
      <stop offset="0" stop-color="#7f9647"/>
      <stop offset=".31" stop-color="#3e6121"/>
      <stop offset=".52" stop-color="#19420c"/>
      <stop offset=".78" stop-color="#1b3108"/>
      <stop offset="1" stop-color="#1d2806"/>
    </linearGradient>
  </defs>
  <g id="Layer_1-2" data-name="Layer 1">
    <path class="cls-1" d="m388.21,7.11c-35.51,4.44-65.09,14.98-69.83,16.62-27.11,9.4-60.82,8.84-126.9-2.03C126.56,11.02,92.28,3.77,92.28,3.77c-14.46-3.06-32.76-7.15-52.23,1.05C23.61,11.74,13.48,24.4,7.89,33.07c-2.83,4.37-6.66,11.66-7.65,21.16-2.81,26.98,19.96,45.96,22.51,48.03,14.96,12.08,31.45,12.92,50.65,14.33,77.7,5.73,58.08,10.55,101.76,10.88,84.21.65,78.11-17.85,173.8-22.89,41.64-2.19,93.24-1.35,102.66-24.69,2.76-6.84,4.78-22.9,18.69-35.12,4.14-3.64,8.14-5.89,10.73-7.17-4-5.42-8.01-10.84-12.01-16.26-3.49,1.67-8.89,3.65-15.41,3.43-14.9-.51-20.99-12.04-36.75-17.12-6.01-1.94-12.34-2.59-28.65-.55Z"/>
  </g>
</svg>