<?xml version="1.0" encoding="utf-8"?>
<!-- Generator: Adobe Illustrator 27.9.0, SVG Export Plug-In . SVG Version: 6.00 Build 0)  -->
<svg version="1.1" id="Layer_1" xmlns="http://www.w3.org/2000/svg" xmlns:xlink="http://www.w3.org/1999/xlink" x="0px" y="0px"
	 viewBox="0 0 1125 2436" style="enable-background:new 0 0 1125 2436;" xml:space="preserve">
<style type="text/css">
	.st0{fill:url(#SVGID_1_);}
	.st1{fill:url(#SVGID_00000119795968747951212120000015237395723536649100_);}
</style>
<radialGradient id="SVGID_1_" cx="1352.7631" cy="902.3432" r="686.2187" gradientTransform="matrix(0.6531 0.7573 -1.6739 1.4436 1037.3092 -1945.8206)" gradientUnits="userSpaceOnUse">
	<stop  offset="0" style="stop-color:#0C8E1B"/>
	<stop  offset="2.482200e-02" style="stop-color:#139120"/>
	<stop  offset="0.2923" style="stop-color:#59AE58"/>
	<stop  offset="0.5331" style="stop-color:#91C684"/>
	<stop  offset="0.7387" style="stop-color:#B9D7A3"/>
	<stop  offset="0.901" style="stop-color:#D2E1B7"/>
	<stop  offset="1" style="stop-color:#DBE5BE"/>
</radialGradient>
<path class="st0" d="M803.1,909.4c-66.1-115.7-144.4-155.9-242.8-237.1c-97.8-80.8-236-219.2-413.2-472.4
	c9.6-19.4,19.2-38.9,28.9-58.3c45.3,56.9,105.5,129.7,179.5,211.5c194.9,215.3,292.3,323,423.2,423.1c115,88,208,138.3,198.4,202.6
	c-5.1,34.4-38.9,67.8-69.2,67.2C864,1045.2,839.3,972.8,803.1,909.4z"/>
<radialGradient id="SVGID_00000163068867554108738850000010626165405433817521_" cx="546.7422" cy="1817.6973" r="929.86" gradientTransform="matrix(0.9981 -6.106988e-02 6.106988e-02 0.9981 -86.2227 38.2839)" gradientUnits="userSpaceOnUse">
	<stop  offset="0" style="stop-color:#FFFFFF"/>
	<stop  offset="5.046628e-02" style="stop-color:#FEFAFB"/>
	<stop  offset="0.114" style="stop-color:#FCEAF0"/>
	<stop  offset="0.1844" style="stop-color:#F9D0DD"/>
	<stop  offset="0.26" style="stop-color:#F5ACC3"/>
	<stop  offset="0.3395" style="stop-color:#EF7EA1"/>
	<stop  offset="0.4226" style="stop-color:#E84678"/>
	<stop  offset="0.5063" style="stop-color:#E00549"/>
	<stop  offset="0.5933" style="stop-color:#E0084B"/>
	<stop  offset="0.6586" style="stop-color:#E21252"/>
	<stop  offset="0.7168" style="stop-color:#E4225E"/>
	<stop  offset="0.771" style="stop-color:#E6396F"/>
	<stop  offset="0.8223" style="stop-color:#EA5684"/>
	<stop  offset="0.8715" style="stop-color:#EF7A9E"/>
	<stop  offset="0.9189" style="stop-color:#F4A5BE"/>
	<stop  offset="0.9639" style="stop-color:#FAD6E1"/>
	<stop  offset="0.9972" style="stop-color:#FFFFFF"/>
</radialGradient>
<path style="fill:url(#SVGID_00000163068867554108738850000010626165405433817521_);" d="M573.7,1046.9
	c-129.1,2.9-273.2,6.2-334.2,112.8c-54.5,95.1-22.9,237.7,50.6,301.9c42.9,37.4,73.3,24.9,145.6,83.4c28.4,23,70.5,57.8,99.5,118.3
	c29.9,62.3,31,120.2,29.3,150.7c-2.7-34.8-2.3-91.9,22.7-153.9c22.9-56.8,56.3-92.6,99.9-138.5c92.1-97,118.5-84.3,152.1-137.7
	c46.9-74.6,57.3-198-4.6-272.6C777.3,1042.3,682.9,1044.5,573.7,1046.9z"/>
<g>
	<g>
		
			<image style="overflow:visible;" width="385.1" height="424.9" xlink:href="EE0FBFA5140D708A.png"  transform="matrix(1 0 0 1 357.7932 1926.4465)"/>
	</g>
</g>
</svg>
