<?xml version="1.0" encoding="utf-8"?>
<!-- Generator: Adobe Illustrator 27.9.0, SVG Export Plug-In . SVG Version: 6.00 Build 0)  -->
<svg version="1.1" id="Layer_1" xmlns="http://www.w3.org/2000/svg" xmlns:xlink="http://www.w3.org/1999/xlink" x="0px" y="0px"
	 viewBox="0 0 1366 768" style="enable-background:new 0 0 1366 768;" xml:space="preserve">
<style type="text/css">
	.st0{fill:url(#SVGID_1_);}
	.st1{fill:url(#SVGID_00000088851296913708711630000015501077131257300878_);}
	.st2{fill:url(#SVGID_00000144298263635501415740000013087572948593368213_);}
	.st3{fill:url(#SVGID_00000139292037740786219470000002763353788833025683_);}
</style>
<radialGradient id="SVGID_1_" cx="1020.4675" cy="259.1808" r="890.2981" fx="593.0577" fy="258.377" gradientTransform="matrix(-1.887998e-02 0.9998 -3.3271 -6.282711e-02 1954.5465 -764.3052)" gradientUnits="userSpaceOnUse">
	<stop  offset="0.3001" style="stop-color:#7F9647"/>
	<stop  offset="0.3049" style="stop-color:#839245"/>
	<stop  offset="0.3913" style="stop-color:#C54424"/>
	<stop  offset="0.4529" style="stop-color:#EF130F"/>
	<stop  offset="0.4833" style="stop-color:#FF0007"/>
</radialGradient>
<path class="st0" d="M1054.9,556.2c-17.6,0.6-30.8-4.5-39.9-8.2c-93.4-37.4-101.7-178.8-102.7-195.6c-2.1-36.5-4.6-78,23.3-105.9
	c11.1-11.1,24.1-17.2,38.1-20.7c-7.2-6.9-14-14.3-20-21.7c-23.5-29.2-33.4-58.2-38-77.4c17.3,1.1,63.1,6.3,100.5,38.3
	c9.4,8,17.5,17.1,24.4,26.5c5.5-21,13.3-43.2,22.4-61.9c16.5-33.9,36.1-53.7,49.5-64.8c2.6,14.8,7.6,49.7,1.2,88.6
	c1-1.1,2-2.1,3-3.1c26.2-27.1,51-39.9,67.2-46.3c-2.6,18.3-11.2,66.8-40.9,108.8c-4.7,6.5-9.6,12.7-14.7,18.3
	c35.7,9.7,69.3,27.7,82.7,60.7c11.3,27.9,2.9,53.5-11.6,97.4C1192.9,408.5,1143.4,553,1054.9,556.2z"/>
<radialGradient id="SVGID_00000167371384723159390450000004115542626744603009_" cx="814.5487" cy="11.8619" r="371.7435" gradientTransform="matrix(0.6531 0.7573 -1.6739 1.4436 -166.6604 -451.7865)" gradientUnits="userSpaceOnUse">
	<stop  offset="0" style="stop-color:#0C8E1B"/>
	<stop  offset="2.482200e-02" style="stop-color:#139120"/>
	<stop  offset="0.2923" style="stop-color:#59AE58"/>
	<stop  offset="0.5331" style="stop-color:#91C684"/>
	<stop  offset="0.7387" style="stop-color:#B9D7A3"/>
	<stop  offset="0.901" style="stop-color:#D2E1B7"/>
	<stop  offset="1" style="stop-color:#DBE5BE"/>
</radialGradient>
<path style="fill:url(#SVGID_00000167371384723159390450000004115542626744603009_);" d="M558.2,468.3
	c-35.8-62.7-78.2-84.5-131.5-128.4c-53-43.8-127.8-118.8-223.9-255.9c5.2-10.5,10.4-21,15.6-31.6c24.5,30.8,57.2,70.3,97.3,114.6
	c105.6,116.6,158.3,175,229.3,229.2c62.3,47.7,112.7,74.9,107.5,109.7c-2.8,18.6-21.1,36.7-37.5,36.4
	C591.2,541.9,577.8,502.7,558.2,468.3z"/>
<linearGradient id="SVGID_00000053543096788303564300000012210304212092681651_" gradientUnits="userSpaceOnUse" x1="20.9065" y1="654.5283" x2="237.4706" y2="860.9578" gradientTransform="matrix(0.9792 0.2029 -0.2029 0.9792 293.7874 -241.4888)">
	<stop  offset="0" style="stop-color:#7F9647"/>
	<stop  offset="6.822240e-02" style="stop-color:#94794F"/>
	<stop  offset="0.1826" style="stop-color:#B24E5B"/>
	<stop  offset="0.2935" style="stop-color:#CA2C65"/>
	<stop  offset="0.3986" style="stop-color:#DB146B"/>
	<stop  offset="0.4955" style="stop-color:#E50570"/>
	<stop  offset="0.5762" style="stop-color:#E90071"/>
	<stop  offset="0.6302" style="stop-color:#E90473"/>
	<stop  offset="0.6835" style="stop-color:#EA107A"/>
	<stop  offset="0.7365" style="stop-color:#EC2485"/>
	<stop  offset="0.7895" style="stop-color:#EE4094"/>
	<stop  offset="0.8424" style="stop-color:#F264A8"/>
	<stop  offset="0.8952" style="stop-color:#F590C1"/>
	<stop  offset="0.9476" style="stop-color:#FAC3DE"/>
	<stop  offset="0.9992" style="stop-color:#FFFEFE"/>
	<stop  offset="1" style="stop-color:#FFFFFF"/>
</linearGradient>
<path style="fill:url(#SVGID_00000053543096788303564300000012210304212092681651_);" d="M201.8,450.6
	c28.8,32.2,37.9,33.2,46.4,52.8c3.7,8.4,9.2,21.1,6.6,36.5c-3.5,20.5-17.7,22.9-19.4,38.8c-2.3,21.3,19.8,47.9,44.1,54.2
	c19,5,28.7-5.1,51.1,0.4c17.1,4.2,29.3,14.5,36.4,21.9c-3.1-9.8-6.6-24.5-5.6-42.1c1.3-25,10.1-30.7,10.6-51.1
	c0.4-18.7-6-52.5-30.3-61.6c-17.2-6.4-25.1,12.9-49.6,12.2c-24.9-0.7-42.2-20.7-69.4-52.2c-30.2-35-28.7-52-28.1-56.5
	c1.1-8.2,4.3-10.7,6.5-21.6c3.8-18.5-0.4-34.9-4.6-46.2c-8.7,11.3-18.5,28-16.5,47.2c1.3,12.5,7.2,23.9,6.4,24.3
	c-1.1,0.5-7-23.2-24.9-36.2c-12.9-9.3-28-10.3-37.8-9.9c4.8,27.6,12.5,36.1,19,38.4c2.2,0.8,7.5,2,13.6,6.2c4.5,3.2,7.6,6.8,9.5,9.4
	c-5.5-0.9-27.2-3.8-46,10.1c-6.7,5-11.2,10.8-14,15.3c3.5,2.2,9.5,5.3,17.1,5.6c22.9,0.9,33.1-24.8,50.7-23.2
	C181.5,423.9,182.6,429.2,201.8,450.6z"/>
<radialGradient id="SVGID_00000157998783805279296230000011975825776509667262_" cx="1127.7781" cy="583.7519" r="176.6782" fx="1074.1761" fy="666.65" gradientTransform="matrix(0.9998 1.868255e-02 -1.868255e-02 0.9998 -196.865 -92.8383)" gradientUnits="userSpaceOnUse">
	<stop  offset="0" style="stop-color:#195E2E"/>
	<stop  offset="0.1626" style="stop-color:#1C6230"/>
	<stop  offset="0.2801" style="stop-color:#216A35"/>
	<stop  offset="0.382" style="stop-color:#267139"/>
	<stop  offset="0.5317" style="stop-color:#348544"/>
	<stop  offset="0.711" style="stop-color:#4CA556"/>
	<stop  offset="0.9116" style="stop-color:#6CD270"/>
	<stop  offset="1" style="stop-color:#7CE87C"/>
</radialGradient>
<path style="fill:url(#SVGID_00000157998783805279296230000011975825776509667262_);" d="M935.5,584.5c3.3-12.8-1.2-26-11.1-33.1
	c-11.4-8.2-24.7-4.5-26.4-4c-0.1-0.5-2.7-11.5-13.2-14.9c-1-0.3-9.6-2.9-17.1,2.6c-5.9,4.4-7.1,10.8-7.3,12.2
	c-0.1-9.8-8-16.7-15.6-16.1c-5.6,0.4-10.8,5.1-12.5,11.5c-9.2-7.1-21-7.1-27.6-1.1c-6.3,5.8-5.7,15-5.6,15.8
	c0.8,8.6,6.9,13.5,8,14.2c-1.4,0.3-9.8,2.4-13.1,9.7c-3.9,8.7,2.2,18.4,7.8,23.1c3.1,2.5,6.2,3.7,8.1,4.3
	c-2.6,6.4,0.4,13.7,6.3,16.4c6.4,2.9,14.3-0.2,17.1-7.1c0.2,1.6,1.1,7.1,5.7,11.3c0.1,0.1,0.8,0.7,1.8,1.4c4.3,12.7,8.3,29,9.6,48
	c1.4,20.3-0.7,37.6-3.3,50.5c2.2,1.2,5.6,2.6,9.9,3.1c8.3,0.9,14.7-2.4,17.1-3.8c-2.3-13.2-3.9-33,1.6-55.8
	c2.2-8.9,5.1-16.7,8.1-23.3c6.6-8.6,13.1-17.1,19.7-25.7c8.1,3.8,17.2,3.7,24.2-0.4C939.4,616.3,944,598.8,935.5,584.5z"/>
</svg>
