<?xml version="1.0" encoding="UTF-8"?>
<svg id="Layer_2" data-name="Layer 2" xmlns="http://www.w3.org/2000/svg" xmlns:xlink="http://www.w3.org/1999/xlink" viewBox="0 0 305.13 491.45">
  <defs>
    <style>
      .cls-1 {
        fill: url(#radial-gradient);
        stroke-width: 0px;
      }
    </style>
    <radialGradient id="radial-gradient" cx="109.43" cy="194.37" fx="-317.98" fy="194.37" r="890.3" gradientTransform="translate(810.68 77.7) rotate(91.08) scale(1 3.33)" gradientUnits="userSpaceOnUse">
      <stop offset=".3" stop-color="#7f9647"/>
      <stop offset=".3" stop-color="#829145"/>
      <stop offset=".39" stop-color="#c54323"/>
      <stop offset=".45" stop-color="#ee120f"/>
      <stop offset=".48" stop-color="#ff0007"/>
    </radialGradient>
  </defs>
  <g id="Layer_1-2" data-name="Layer 1">
    <path class="cls-1" d="m143.82,491.4c-17.57.63-30.77-4.49-39.91-8.15C10.51,445.81,2.19,304.47,1.2,287.64c-2.13-36.54-4.58-77.98,23.26-105.86,11.09-11.1,24.1-17.17,38.05-20.7-7.21-6.95-13.96-14.28-19.98-21.73C19.04,110.16,9.16,81.14,4.58,61.91c17.34,1.14,63.06,6.3,100.54,38.28,9.36,8,17.53,17.08,24.43,26.51,5.49-20.99,13.29-43.22,22.39-61.89C168.44,30.93,188.02,11.09,201.45,0c2.63,14.8,7.62,49.67,1.21,88.57,1.01-1.05,1.99-2.12,2.99-3.13,26.23-27.11,50.99-39.92,67.17-46.3-2.58,18.33-11.15,66.75-40.95,108.78-4.67,6.54-9.61,12.67-14.71,18.29,35.7,9.69,69.33,27.7,82.72,60.65,11.3,27.86,2.9,53.45-11.58,97.38-6.4,19.42-55.9,163.95-144.49,167.16Z"/>
  </g>
</svg>